<svg enable-background="new 0 0 24 24" height="512" viewBox="0 0 24 24" width="512" xmlns="http://www.w3.org/2000/svg"><path d="m22.308 24h-20.616c-.444 0-.863-.195-1.149-.536-.286-.34-.405-.787-.328-1.225l2.647-15c.126-.718.748-1.239 1.477-1.239h15.322c.729 0 1.351.521 1.477 1.239l2.647 15c.077.438-.042.885-.328 1.225-.286.341-.705.536-1.149.536zm-17.969-17c-.243 0-.45.174-.493.413l-2.647 15c-.035.199.054.342.11.408.056.067.18.179.383.179h20.616c.203 0 .327-.112.383-.179.056-.066.145-.209.11-.408l-2.647-15c-.043-.239-.25-.413-.493-.413z"/><path d="m12 7c-1.93 0-3.5-1.57-3.5-3.5s1.57-3.5 3.5-3.5 3.5 1.57 3.5 3.5-1.57 3.5-3.5 3.5zm0-6c-1.378 0-2.5 1.122-2.5 2.5s1.122 2.5 2.5 2.5 2.5-1.122 2.5-2.5-1.122-2.5-2.5-2.5z"/><path d="m6.5 19c-.276 0-.5-.224-.5-.5v-7c0-.276.224-.5.5-.5s.5.224.5.5v7c0 .276-.224.5-.5.5z"/><path d="m15.5 19c-1.378 0-2.5-1.121-2.5-2.5v-3c0-1.378 1.122-2.5 2.5-2.5s2.5 1.122 2.5 2.5c0 .276-.224.5-.5.5s-.5-.224-.5-.5c0-.827-.673-1.5-1.5-1.5s-1.5.673-1.5 1.5v3c0 .827.673 1.5 1.5 1.5s1.5-.673 1.5-1.5v-.5h-1.5c-.276 0-.5-.224-.5-.5s.224-.5.5-.5h2c.276 0 .5.224.5.5v1c0 1.379-1.122 2.5-2.5 2.5z"/><path d="m10.5 19.062c-.119 0-.237-.042-.333-.127l-4-3.562c-.106-.095-.167-.231-.167-.375s.063-.28.171-.374l4-3.5c.207-.182.522-.162.706.047.182.208.161.523-.047.706l-3.574 3.126 3.577 3.187c.206.184.225.499.041.706-.1.11-.236.166-.374.166z"/></svg>