<svg xmlns="http://www.w3.org/2000/svg" width="210mm" height="297mm" viewBox="0 0 21000 29700" shape-rendering="geometricPrecision" text-rendering="geometricPrecision" image-rendering="optimizeQuality" fill-rule="evenodd" clip-rule="evenodd">
    <g>
        <path d="M14638.98 3189.76c-206.24 1423.65-596.21 3011.07-779.8 4432.41-936.48 2177.17-2000.08 4037.78-3137.8 5714.43l-253.47 83.37 2504.75-5309.78 407.95-1096.72 487.21-1245.92 771.16-2577.79zM7909.04 16605.01c1188.96-541.62 1618.56-1111.07 2008.39-2553.83 1652.86-3173.24 3274.59-6319.68 4344.04-9732.05 231.52-739.21 423.6-1548.83 617.72-2321.68l-2891.61 18300.47-9406.3 279.47c2409.21-552.47 4451.57-1551 5327.76-3972.38z"/>
        <path d="M12277.05 20598.43L14850.73 2537.5l-2238.92 18258.49-10030.53-218.55z"/>
        <path d="M14879.23 1997.45l-477.35 6871.72-1040.66 12242.14-231.72 20.81 1162.82-12272.57 258-4214.53zM2821.2 21580.36l12464.7-390.96c-3136.58 1477.91-9133.34 1033.82-12464.7 390.96z"/>
        <path d="M1818.47 22007.88c3829.51 597.39 7808.36 674.95 11925.54 271.16-797.3 347.69-937.48 1257.38-1831.12 1053.46-3523.44-803.29-3920.62-161.28-5243.87 43.78-1968.99-209.4-3456.72-602.9-4850.55-1368.4z"/>
        <path d="M8126.27 23415.59c2373.25-357.23 3430.57 1552.46 6071.45-859.58 678.82-447.77 1665.04 158.48 1630.27 950.26-1215.44-840.56-2130.27 741.2-3247.79 823.3-1001.56 240.68-2475.51-707.61-4453.93-913.98zM14808.69 2879.86l70.59-882.37L15436.89 7378l933.14 12010.8-8.5 23.97z"/>
        <path d="M14833.09 7909.85c2222.6 583.23 4159.93 1954.79 5577.4 4762.84 844.58 2444.31 536.14 4833.09-919.26 7166.19-1212.13 1290.17-2605.16 2172.02-4334.75 2294.23 2855.14-5746.56 3823.9-10110.42-323.39-14223.26z"/>
        <path d="M14808.69 2879.86l70.59-882.37 785.5 5234.53 1168.49 10891.38-14.82 36.81z"/>
    </g>
</svg>