<svg xmlns="http://www.w3.org/2000/svg"
        xmlns:xlink="http://www.w3.org/1999/xlink"
        width="28px" height="29px">
    <g >
        <path fill-rule="evenodd" d="M16.121,14.499 L27.435,25.813 C28.021,26.398 28.021,27.348 27.435,27.934 C26.849,28.520 25.899,28.520 25.314,27.934 L14.000,16.620 L2.686,27.934 C2.100,28.520 1.151,28.520 0.565,27.934 C-0.021,27.348 -0.021,26.398 0.565,25.813 L11.879,14.499 L0.565,3.185 C-0.021,2.600 -0.021,1.650 0.565,1.064 C1.151,0.478 2.100,0.478 2.686,1.064 L14.000,12.378 L25.314,1.064 C25.899,0.478 26.849,0.478 27.435,1.064 C28.021,1.650 28.021,2.600 27.435,3.185 L16.121,14.499 Z"/>
    </g>
</svg>