<?xml version="1.0" encoding="iso-8859-1"?>
<!-- Generator: Adobe Illustrator 19.0.0, SVG Export Plug-In . SVG Version: 6.00 Build 0)  -->
<svg version="1.1" id="Capa_1" xmlns="http://www.w3.org/2000/svg" xmlns:xlink="http://www.w3.org/1999/xlink" x="0px" y="0px"
	 viewBox="0 0 421.6 421.6" style="enable-background:new 0 0 421.6 421.6;" xml:space="preserve">
<g>
	<g>
		<path d="M210.663,90.4c-39.2,0-71.2,32-71.2,71.2c0,39.2,32,71.2,71.2,71.2s71.2-32,71.2-71.2
			C281.863,122.4,249.863,90.4,210.663,90.4z M210.663,216.8c-30.4,0-55.2-24.8-55.2-55.2c0-30.4,24.8-55.2,55.2-55.2
			c30.4,0,55.2,24.8,55.2,55.2C265.863,192,241.063,216.8,210.663,216.8z"/>
	</g>
</g>
<g>
	<g>
		<path d="M210.663,120c-4.8,0-8,3.2-8,8v33.6c0,4.8,3.2,8,8,8s8-3.2,8-8V128C218.663,123.2,214.663,120,210.663,120z"/>
	</g>
</g>
<g>
	<g>
		<path d="M311.463,50.4c0-3.2,0-6.4-1.6-8.8c-20-41.6-95.2-41.6-99.2-41.6c-4.8,0-79.2,0-100,42.4c-0.8,2.4-0.8,5.6,0.8,8l27.2,44
			c-16.8,17.6-27.2,41.6-27.2,68c0,30.4,13.6,57.6,36,76v47.2c0,7.2,6.4,13.6,15.2,13.6h40.8v23.2c0,4.8,3.2,8,8,8
			c20.8,0,37.6,16.8,37.6,37.6c0,20.8-16.8,37.6-37.6,37.6c-20.8,0-37.6-16.8-37.6-37.6c0-4.8-3.2-8-8-8c-4.8,0-8,3.2-8,8
			c0,29.6,24,53.6,53.6,53.6c29.6,0,53.6-24,53.6-53.6c0-27.2-20-48.8-45.6-52.8v-16h40.8c8,0,15.2-6.4,15.2-13.6v-47.2
			c21.6-18.4,36-45.6,36-76c0-26.4-10.4-50.4-27.2-68L311.463,50.4z M127.463,45.6c18.4-30.4,82.4-29.6,82.4-29.6
			c18.4,0,67.2,4.8,83.2,29.6l-22.4,37.6c-16.8-12.8-37.6-20.8-60-20.8s-43.2,8-60,20.8L127.463,45.6z M162.663,282.4v-33.6
			c14.4,8,30.4,12,47.2,12s33.6-4.8,47.2-12v33.6H162.663z M293.863,161.6c0,45.6-37.6,83.2-83.2,83.2c-45.6,0-83.2-37.6-83.2-83.2
			c0-45.6,36.8-83.2,83.2-83.2C257.063,78.4,293.863,116,293.863,161.6z"/>
	</g>
</g>
<g>
</g>
<g>
</g>
<g>
</g>
<g>
</g>
<g>
</g>
<g>
</g>
<g>
</g>
<g>
</g>
<g>
</g>
<g>
</g>
<g>
</g>
<g>
</g>
<g>
</g>
<g>
</g>
<g>
</g>
</svg>
