<svg height="478pt" viewBox="-36 0 478 478.6841" width="478pt" xmlns="http://www.w3.org/2000/svg"><path d="m240.34375 310.683594h-96c-4.421875 0-8 3.582031-8 8v32c0 4.417968 3.578125 8 8 8h96c4.417969 0 8-3.582032 8-8v-32c0-4.417969-3.582031-8-8-8zm-8 32h-80v-16h80zm0 0"/><path d="m5.140625 60.882812c-2.910156 1.273438-4.792969 4.144532-4.796875 7.320313v20.960937c.003906 3.175782 1.886719 6.050782 4.796875 7.320313l18.082031 8 4.152344 7.199219-2.144531 19.695312c-.34375 3.152344 1.207031 6.207032 3.953125 7.792969l18.140625 10.480469c2.746093 1.582031 6.164062 1.398437 8.722656-.472656l16-11.710938h8.296875l16 11.703125c2.554688 1.871094 5.972656 2.054687 8.71875.472656l18.152344-10.480469c2.742187-1.585937 4.292968-4.640624 3.953125-7.792968l-2.144531-19.695313 4.152343-7.199219 18.078125-8c2.910156-1.269531 4.796875-4.144531 4.800782-7.320312v-20.953125c-.003907-3.175781-1.890626-6.046875-4.800782-7.320313l-18.078125-8-4.152343-7.199218 2.144531-19.695313c.339843-3.152343-1.210938-6.207031-3.953125-7.792969l-18.144532-10.480468c-2.753906-1.574219-6.175781-1.371094-8.726562.511718l-16 11.714844h-8.3125l-16-11.707031c-2.558594-1.867187-5.976562-2.054687-8.722656-.46875l-18.167969 10.46875c-2.742187 1.585937-4.292969 4.644531-3.949219 7.792969l2.144532 19.695312-4.152344 7.203125zm26.929687 5.601563c1.554688-.683594 2.851563-1.847656 3.703126-3.320313l6.746093-11.679687c.847657-1.472656 1.207031-3.175781 1.023438-4.863281l-1.863281-17.136719 9.109374-5.265625 13.90625 10.167969c1.367188 1.003906 3.015626 1.542969 4.710938 1.546875h13.535156c1.699219-.003906 3.351563-.542969 4.71875-1.546875l13.90625-10.175781 9.113282 5.265624-1.859376 17.121094c-.183593 1.6875.175782 3.390625 1.027344 4.863282l6.757813 11.71875c.855469 1.46875 2.152343 2.632812 3.703125 3.320312l15.707031 6.921875v10.527344l-15.671875 6.917969c-1.558594.6875-2.855469 1.847656-3.707031 3.320312l-6.796875 11.695312c-.851563 1.472657-1.210938 3.175782-1.027344 4.867188l1.867188 17.109375-9.113282 5.265625-13.90625-10.167969c-1.367187-1-3.015625-1.542969-4.710937-1.546875h-13.535157c-1.699218.003906-3.351562.542969-4.71875 1.546875l-13.90625 10.175781-9.109374-5.265624 1.855468-17.109376c.183594-1.691406-.175781-3.394531-1.023437-4.867187l-6.761719-11.71875c-.847656-1.472656-2.144531-2.636719-3.703125-3.320313l-15.703125-6.902343v-10.527344zm0 0"/><path d="m76.175781 106.851562c15.554688.003907 28.171875-12.605468 28.175781-28.164062 0-15.554688-12.609374-28.171875-28.167968-28.171875s-28.167969 12.609375-28.167969 28.167969c.015625 15.546875 12.613281 28.144531 28.160156 28.167968zm0-40.335937c6.71875-.003906 12.171875 5.441406 12.175781 12.164063 0 6.71875-5.445312 12.171874-12.167968 12.171874-6.71875.003907-12.167969-5.445312-12.167969-12.167968.007813-6.714844 5.445313-12.152344 12.160156-12.167969zm0 0"/><path d="m387.414062 54.515625-8.976562-11.582031c-1.945312-2.511719-5.191406-3.632813-8.269531-2.859375l-30.539063 7.664062-3.933594-2.71875-3.847656-33.65625c-.363281-3.15625-2.5625-5.800781-5.601562-6.734375l-14.039063-4.28125c-3.046875-.925781-6.351562.042969-8.417969 2.464844l-21.597656 25.375h-4.800781l-21.601563-25.375c-2.066406-2.425781-5.375-3.394531-8.421874-2.464844l-14.03125 4.28125c-3.042969.933594-5.238282 3.578125-5.601563 6.734375l-3.839844 33.65625-3.9375 2.71875-30.574219-7.664062c-3.082031-.773438-6.328124.347656-8.273437 2.859375l-8.976563 11.574218c-1.941406 2.511719-2.21875 5.929688-.703124 8.71875l15.488281 28.488282-1.535157 4.496094-28.242187 12.496093c-2.90625 1.269531-4.789063 4.140625-4.796875 7.3125v14.664063c.003906 3.175781 1.886719 6.050781 4.796875 7.320312l28.273437 12.488282 1.535157 4.496093-10.75 19.695313h-127.855469c-4.421875 0-8 3.582031-8 8v288c0 4.417968 3.578125 8 8 8h288c4.417969 0 8-3.582032 8-8v-270.558594l25.8125 6.488281c.640625.15625 1.296875.238281 1.953125.238281 2.472656 0 4.804687-1.140624 6.320313-3.09375l8.976562-11.578124c1.945312-2.511719 2.222656-5.9375.703125-8.726563l-15.488281-28.480469 1.535156-4.503906 28.273438-12.488281c2.910156-1.269531 4.796874-4.144531 4.800781-7.320313v-14.640625c-.007813-3.171875-1.890625-6.042969-4.800781-7.3125l-28.273438-12.496093-1.535156-4.496094 15.496094-28.480469c1.515624-2.789063 1.242187-6.207031-.703126-8.71875zm-192 160.800781c-2.988281-1.238281-6.433593-.554687-8.71875 1.734375l-34.351562 34.320313v-60.6875h80v72h-32v-40c0-3.234375-1.949219-6.152344-4.9375-7.390625zm132.929688 247.367188h-272v-272h80v80c0 3.234375 1.949219 6.152344 4.9375 7.390625s6.429688.554687 8.71875-1.734375l34.34375-34.34375v28.6875c0 4.417968 3.578125 8 8 8h48c4.417969 0 8-3.582032 8-8v-80h80zm62.855469-341.449219v4.21875l-26.714844 11.800781c-2.042969.898438-3.621094 2.617188-4.34375 4.734375l-3.796875 11.144531c-.71875 2.117188-.519531 4.4375.550781 6.398438l14.648438 26.976562-2.570313 3.3125-24.628906-6.183593v-.953125c0-4.417969-3.582031-8-8-8h-34.273438c24.34375-10.566406 37.925782-36.773438 32.53125-62.753906-5.398437-25.984376-28.292968-44.613282-54.832031-44.613282-26.539062 0-49.433593 18.628906-54.828125 44.613282-5.398437 25.980468 8.183594 52.1875 32.527344 62.753906h-63.0625l8.246094-15.160156c1.070312-1.964844 1.265625-4.285157.546875-6.398438l-3.800781-11.136719c-.722657-2.117187-2.296876-3.835937-4.34375-4.734375l-26.710938-11.800781v-4.21875l26.710938-11.796875c2.046874-.902344 3.621093-2.621094 4.34375-4.738281l3.800781-11.144531c.71875-2.113282.523437-4.433594-.546875-6.398438l-14.671875-26.976562 2.578125-3.320313 28.984375 7.28125c2.234375.5625 4.605469.132813 6.503906-1.175781l9.894531-6.855469c1.898438-1.3125 3.136719-3.375 3.402344-5.664063l3.65625-32.050781 4-1.214843 20.589844 24.191406c1.519531 1.785156 3.746094 2.816406 6.089844 2.816406h12.183593c2.34375 0 4.574219-1.027344 6.09375-2.816406l20.59375-24.191406 4 1.214843 3.65625 32.050781c.261719 2.292969 1.5 4.359376 3.398438 5.671876l9.90625 6.847656c1.894531 1.308594 4.261719 1.738281 6.496093 1.175781l28.980469-7.28125 2.578125 3.328125-14.671875 26.976562c-1.066406 1.964844-1.265625 4.285157-.542969 6.398438l3.789063 11.128906c.722656 2.121094 2.296875 3.839844 4.34375 4.746094zm-111.425781 42.113281c-22.089844 0-40-17.90625-40-40 0-22.089844 17.910156-40 40-40 22.09375 0 40 17.910156 40 40-.027344 22.082032-17.917969 39.972656-40 40zm0 0"/></svg>