<svg xmlns="http://www.w3.org/2000/svg" xmlns:xlink="http://www.w3.org/1999/xlink" version="1.1" width="512" height="512" x="0" y="0" viewBox="0 0 512 512" style="enable-background:new 0 0 512 512" xml:space="preserve" class=""><g>
<g xmlns="http://www.w3.org/2000/svg">
	<g>
		<path d="M437,0H75C33.65,0,0,33.65,0,75v362c0,41.36,33.65,75,75,75h362c41.36,0,75-33.64,75-75V75C512,33.65,478.36,0,437,0z M482,437c0,24.81-20.19,45-45,45H75c-24.81,0-45-20.19-45-45V75c0-24.81,20.19-45,45-45h362c24.81,0,45,20.19,45,45V437z" />
	</g>
	<g>
		<path d="M421,61c-16.54,0-30,13.46-30,30s13.46,30,30,30s30-13.46,30-30S437.54,61,421,61z" />
	</g>
	<g>
		<path d="M256,121c-74.44,0-135,60.56-135,135s60.56,135,135,135s135-60.56,135-135S330.44,121,256,121z M256,361 c-57.9,0-105-47.1-105-105s47.1-105,105-105s105,47.1,105,105S313.9,361,256,361z" />
	</g>
</g>
</g></svg>
