<svg id="Capa_1" enable-background="new 0 0 512 512" height="512" viewBox="0 0 512 512" width="512" xmlns="http://www.w3.org/2000/svg"><g><g><path d="m304.996 84.66h-98.021c-5.522 0-10 4.477-10 10s4.478 10 10 10h98.021c5.522 0 10-4.477 10-10s-4.477-10-10-10z"/><path d="m172.42 395.783-26.985-35.184c-3.361-4.383-9.641-5.208-14.021-1.849-4.382 3.361-5.21 9.639-1.849 14.021l22.317 29.098-22.317 29.098c-2.755 3.591-2.754 8.585.002 12.175l26.985 35.155c1.97 2.565 4.938 3.912 7.939 3.912 2.125 0 4.267-.674 6.082-2.068 4.381-3.363 5.206-9.641 1.844-14.021l-22.313-29.069 22.315-29.096c2.755-3.59 2.755-8.581.001-12.172z"/><path d="m360.094 401.869 22.338-29.094c3.363-4.38 2.539-10.658-1.842-14.021s-10.658-2.54-14.021 1.842l-27.014 35.184c-2.758 3.592-2.758 8.588 0 12.18l22.336 29.092-22.334 29.064c-3.365 4.379-2.543 10.658 1.837 14.022 1.816 1.396 3.959 2.071 6.086 2.071 3 0 5.967-1.345 7.937-3.908l27.014-35.155c2.76-3.591 2.761-8.59.002-12.183z"/><path d="m304.429 125.105h-97.991c-5.522 0-10 4.477-10 10s4.478 10 10 10h97.991c5.522 0 10-4.477 10-10s-4.478-10-10-10z"/><path d="m479.748 66.927h-65.196c-3.059-8.147-10.913-13.972-20.125-13.972h-23.517c-1.431-29.14-25.615-52.408-55.143-52.408h-119.535c-29.542 0-53.74 23.268-55.171 52.408h-23.518c-9.211 0-17.066 5.825-20.124 13.972h-65.195c-17.769 0-32.224 14.446-32.224 32.202 0 17.741 14.455 32.174 32.224 32.174h65.189c3.054 8.146 10.913 13.972 20.131 13.972h23.448v7.281c0 23.601 7.596 46.508 21.969 66.479v28.749c0 14.718 11.685 26.757 26.276 27.365v15.456c0 15.308 12.472 27.762 27.801 27.762h3.097v114.448l-10.968 24.375c-1.328 2.952-1.146 6.365.49 9.158l23.526 40.162c1.795 3.063 5.079 4.945 8.629 4.945h28.375c3.552 0 6.838-1.884 8.631-4.95l23.498-40.162c1.633-2.79 1.815-6.196.492-9.145l-10.943-24.378v-10.189c0-5.523-4.478-10-10-10s-10 4.477-10 10v12.331c0 1.412.299 2.808.877 4.095l9.711 21.632-18.001 30.766h-16.908l-18.021-30.764 9.731-21.626c.581-1.29.881-2.689.881-4.104v-116.595h31.73v14.634c0 5.523 4.478 10 10 10s10-4.477 10-10v-14.634h3.097c15.329 0 27.801-12.454 27.801-27.762v-15.456c14.576-.608 26.248-12.647 26.248-27.365v-28.743c14.373-19.937 21.969-42.845 21.969-66.485v-7.281h23.448c9.218 0 17.077-5.826 20.131-13.972h65.189c17.784 0 32.252-14.433 32.252-32.174 0-17.755-14.468-32.201-32.252-32.201zm-261.724-46.38h75.923v11.834c0 6.525-5.331 11.834-11.883 11.834h-52.157c-6.552 0-11.883-5.309-11.883-11.834zm-198.024 78.582c0-6.729 5.483-12.202 12.224-12.202h63.813v24.376h-63.813c-6.741 0-12.224-5.461-12.224-12.174zm97.544 26.145c-.804 0-1.508-.68-1.508-1.455v-49.381c0-.79.704-1.483 1.508-1.483h23.448v52.319zm65.417 122.51v-22.016h37.74v29.41h-30.308c-4.029 0-7.432-3.386-7.432-7.394zm88.338 7.394h-30.598v-54.372c0-8.413 6.856-15.257 15.284-15.257 8.444 0 15.313 6.844 15.313 15.257v54.372zm23.663 43.188h-77.924c-4.302 0-7.801-3.482-7.801-7.762v-15.426h93.525v15.426c.001 4.208-3.572 7.762-7.8 7.762zm34.049-50.582c0 4.077-3.321 7.394-7.404 7.394h-30.308v-29.41h37.712zm21.968-95.229c0 18.784-5.894 37.08-17.071 53.212h-42.609v-4.961c0-19.441-15.842-35.257-35.313-35.257-19.456 0-35.284 15.816-35.284 35.257v4.961h-42.632c-11.181-16.165-17.077-34.462-17.077-53.212v-96.868c0-19.376 15.809-35.14 35.24-35.14h1.792v11.834c0 17.554 14.303 31.834 31.883 31.834h52.157c17.58 0 31.883-14.281 31.883-31.834v-11.834h1.82c19.416 0 35.212 15.764 35.212 35.14v96.868zm44.957-28.735c0 .789-.69 1.455-1.508 1.455h-23.448v-52.32h23.448c.817 0 1.508.679 1.508 1.483zm83.812-12.517h-63.813v-24.376h63.813c6.756 0 12.252 5.474 12.252 12.202 0 6.713-5.496 12.174-12.252 12.174z"/><path d="m281.865 367.786c-5.522 0-10 4.491-10 10.014s4.478 10 10 10 10-4.477 10-10v-.028c0-5.523-4.477-9.986-10-9.986z"/></g></g></svg>