<?xml version="1.0" encoding="iso-8859-1"?>
<!-- Generator: Adobe Illustrator 19.0.0, SVG Export Plug-In . SVG Version: 6.00 Build 0)  -->
<svg version="1.1" id="Capa_1" xmlns="http://www.w3.org/2000/svg" xmlns:xlink="http://www.w3.org/1999/xlink" x="0px" y="0px"
	 viewBox="0 0 377.2 377.2" style="enable-background:new 0 0 377.2 377.2;" xml:space="preserve">
<g>
	<g>
		<g>
			<path d="M322,55.8C287.6,21.4,240.4,0.2,188.4,0.2S89.2,21.4,55.2,55.4S0,136.6,0,188.6c0,50.8,20,96.8,52.8,130.8
				c32.8,34,78,55.6,128.8,57.6c4,0,7.6-3.2,7.6-7.2s-3.2-7.6-7.2-7.6c-46.4-1.6-88.4-21.6-118.4-52.8c-30-31.6-48.4-74-48.4-120.8
				c0-48,19.6-91.2,50.8-122.8c31.2-31.2,74.4-50.4,122.4-50.4S279.6,35,310.8,66.2C342,97.4,361.6,141,361.6,189
				c0,15.2-2,30-5.6,44.4c-3.6,14-9.2,28-16.8,40.8c-2,3.6-0.8,8,2.8,10.4c3.6,2,8,0.8,10.4-2.8c8-14,14-29.2,18.4-44.8
				c4-15.6,6.4-32,6.4-48C377.2,137,356,89.8,322,55.8z"/>
			<path d="M188,41.4c-40.4,0-77.2,16.4-104,43.2c-26.4,26.4-43.2,63.2-43.2,104c0,32.8,10.8,63.6,29.6,88.8
				c18.8,24.8,45.6,44,77.2,52.8c4,1.2,8-1.2,9.2-5.2c1.2-4-1.2-8-5.2-9.2c-28.4-8-52.4-25.2-69.2-47.2
				c-15.6-20.4-24.8-45.2-26.4-72h18.8c4,0,7.6-3.2,7.6-7.6c0-4-3.2-7.6-7.6-7.6H56c2-33.6,16-63.6,38.4-85.6
				c22.4-22.4,52.4-36.4,85.6-38.4v18.8c0,4,3.2,7.6,7.6,7.6c4,0,7.6-3.2,7.6-7.6V57.4c33.6,2,63.6,16,85.6,38.4
				c22.4,22.4,36.4,52.4,38.4,85.6h-18.8c-4,0-7.6,3.2-7.6,7.6c0,4,3.2,7.6,7.6,7.6h18.8c-0.4,4-0.4,8-1.2,12
				c-0.8,6.4-2.4,12.8-4.4,19.2c-1.2,4,1.2,8,4.8,9.2c5.2,1.2,9.2-1.2,10.4-5.2c2-7.2,4-14.4,4.8-21.2c1.2-7.2,1.6-14.4,1.6-22
				c0-40.4-16.4-77.2-43.2-104C265.6,58.2,228.8,41.4,188,41.4z"/>
			<path d="M188.4,97.4c-4,0-7.6,3.2-7.6,7.6v61.2c-3.2,1.2-6.4,2.8-8.8,5.2l-0.4,0.4c-2.4,2.4-4.4,5.6-5.6,9.2h-46
				c-4,0-7.6,3.2-7.6,7.6c0,4,3.2,7.6,7.6,7.6h45.6c1.2,3.6,3.2,6.8,5.6,9.2c4.4,4.4,10.4,6.8,16.8,6.8s12.4-2.8,16.8-6.8
				c4.4-4.4,6.8-10.4,6.8-16.8c0-6.4-2.8-12.4-6.8-16.8c-2.4-2.4-5.6-4.4-9.2-5.6V105C196,101,192.4,97.4,188.4,97.4z M197.2,188.6
				c0,2.4-1.2,4.8-2.8,6.4c-1.6,1.6-3.6,2.4-6,2.4c-2.4,0-4.8-0.8-6-2.4c-1.6-1.6-2.4-3.6-2.4-6c0-2.4,0.8-4.4,2.4-6
				c0,0,0,0,0.4-0.4c1.6-1.6,3.6-2.4,6-2.4c2.4,0,4.8,0.8,6,2.4C196.4,184.2,197.2,186.2,197.2,188.6z"/>
			<path d="M268.8,297.4c-3.6-2.8-8.4-5.2-14.8-6.4c-3.6-0.8-6-1.6-7.6-2.4c-1.6-0.8-2.4-2-2.4-3.6c0-1.6,0.8-2.8,2.4-4
				c1.6-1.2,3.2-1.6,5.2-1.6c2.4,0,4.8,0.4,7.6,1.6c2.8,1.2,5.2,1.6,6.4,1.6c2,0,3.2-0.8,4.8-2.4c1.2-1.6,2-3.2,2-4.8
				c0-3.2-1.2-5.6-4-6.8c-3.2-1.6-6.8-2.8-11.2-3.2v-4.8c0-2-0.4-3.2-1.6-4s-2.8-1.2-4.4-1.2c-1.6,0-3.2,0.4-4.4,1.6
				c-1.2,1.2-1.6,2.4-1.6,4.4v4.8c-5.2,1.2-9.2,3.6-12.4,7.6c-3.2,3.6-4.8,8-4.8,12.8c0,5.2,2,9.2,5.6,12c3.6,2.8,8.8,5.2,15.6,6.4
				c6,1.2,9.2,3.2,9.2,6.4c-0.4,2-1.2,3.6-2.8,4.8s-3.6,1.6-5.6,1.6c-0.8,0-2,0-2.8,0s-1.6-0.4-2.4-0.4c-0.8-0.4-1.6-0.4-2-0.8
				c-0.4,0-1.2-0.4-2-0.8c-0.8-0.4-1.2-0.4-1.6-0.8c-2.4-0.8-4.4-1.6-6-1.6c-2,0-3.2,0.8-4.8,2.4c-1.2,1.6-2,3.6-2,5.6
				c0,3.2,1.6,5.6,4.8,7.2c3.2,2,7.6,3.2,13.2,3.6v5.6c0,1.6,0.4,2.8,2,3.6c1.2,0.8,2.8,1.2,4.4,1.2c2,0,3.2-0.4,4.4-1.2
				c1.2-0.8,1.6-2.4,1.6-4.4v-5.6c5.2-1.2,9.2-3.6,12.4-7.2c3.2-3.6,4.8-8,4.8-13.6C274,304.6,272.4,300.2,268.8,297.4z"/>
			<path d="M250.4,223.4c-21.2,0-40.4,8.4-54,22.4c-14,14-22.4,33.2-22.4,54c0,21.2,8.4,40.4,22.4,54c13.6,13.6,32.8,22.4,54,22.4
				s40.4-8.4,54-22.4c14-14,22.4-33.2,22.4-54c0-21.2-8.4-40.4-22.4-54C290.4,231.8,271.2,223.4,250.4,223.4z M294,343
				c-11.2,11.2-26.4,18-43.6,18s-32.4-6.8-43.6-18s-18-26.4-18-43.6c0-16.8,6.8-32.4,18-43.6c11.2-11.2,26.4-18,43.6-18
				s32.4,6.8,43.6,18s18,26.4,18,43.6S305.2,331.8,294,343z"/>
		</g>
	</g>
</g>
<g>
</g>
<g>
</g>
<g>
</g>
<g>
</g>
<g>
</g>
<g>
</g>
<g>
</g>
<g>
</g>
<g>
</g>
<g>
</g>
<g>
</g>
<g>
</g>
<g>
</g>
<g>
</g>
<g>
</g>
</svg>
