<svg id="Capa_1" enable-background="new 0 0 511.99 511.99" height="512" viewBox="0 0 511.99 511.99" width="512" xmlns="http://www.w3.org/2000/svg"><g><path d="m499.354 275.396-22.757-7.233v-67.734c0-10.764-8.757-19.521-19.521-19.521h-49.95c-4.143 0-7.5 3.358-7.5 7.5s3.357 7.5 7.5 7.5h49.95c2.492 0 4.521 2.028 4.521 4.521v10.588h-55.495c-15.179 0-27.528 12.349-27.528 27.528v15.075c0 15.179 12.35 27.528 27.528 27.528h61.832l26.877 8.544c1.304.413 2.179 1.61 2.179 2.978v11.727h-7.192c-4.143 0-7.5 3.357-7.5 7.5s3.357 7.5 7.5 7.5h7.192v9.628c0 1.724-1.402 3.126-3.127 3.126h-26.047c-9.831-21.6-31.425-35.915-55.683-35.915-24.219 0-45.836 14.28-55.683 35.915h-21.709c0-34.731 0-63.72 0-98.73 0-20.684 16.828-37.512 37.512-37.512h4.887c4.143 0 7.5-3.358 7.5-7.5s-3.357-7.5-7.5-7.5h-4.887c-28.955 0-52.512 23.557-52.512 52.512v13.042h-16.351c-8.447 0-15.319 6.873-15.319 15.32v42.615h-50.177v-12.161h11.965c2.509 0 4.852-1.254 6.242-3.342l81.079-121.717h8.37c6.021 0 11.748-2.278 16.125-6.413l22.436-21.197 33.933-10.302c3.16-.959 5.321-3.874 5.321-7.177v-21.146c0-4.142-3.357-7.5-7.5-7.5h-41.979c-6.023 0-11.75 2.278-16.126 6.413l-21.548 20.361h-100.725c-4.143 0-7.5 3.358-7.5 7.5s3.357 7.5 7.5 7.5h103.709c1.916 0 3.759-.733 5.151-2.048l23.717-22.41c1.58-1.493 3.648-2.315 5.823-2.315h34.479v8.085l-30.301 9.199c-1.11.337-2.128.928-2.972 1.725l-23.719 22.409c-1.58 1.494-3.648 2.316-5.823 2.316-8.075 0-251.764 0-275.443 0-2.125 0-4.149.901-5.571 2.479l-34.767 38.58c-3.232 3.586-8.601 3.666-11.977.624-3.475-3.131-3.754-8.504-.625-11.978l39.528-43.865c1.605-1.781 3.902-2.803 6.301-2.803h142.502c4.143 0 7.5-3.358 7.5-7.5s-3.357-7.5-7.5-7.5h-142.502c-6.641 0-12.999 2.829-17.443 7.762l-39.529 43.865c-8.665 9.618-7.891 24.494 1.726 33.161 9.665 8.709 24.517 7.869 33.162-1.725l.802-.889 9.524 11.566v90.441h-4.031c-15.715 0-30.018 8.643-37.328 22.555l-4.839 9.211c-1.222 2.325-1.138 5.119.221 7.367 1.358 2.247 3.793 3.621 6.419 3.621h44.433c-.564 3.333-.875 6.751-.875 10.242 0 33.693 27.454 61.157 61.158 61.157 33.694 0 61.157-27.454 61.157-61.157 0-3.491-.31-6.909-.875-10.242h22.852v11.145c0 9.011 7.33 16.341 16.34 16.341h14.524c4.143 0 7.5-3.357 7.5-7.5s-3.357-7.5-7.5-7.5h-14.525c-.739 0-1.34-.602-1.34-1.341v-11.145h85.211v11.145c0 .739-.601 1.341-1.34 1.341h-38.021c-4.143 0-7.5 3.357-7.5 7.5s3.357 7.5 7.5 7.5h38.021c9.01 0 16.34-7.33 16.34-16.341v-11.145h37.109c-.565 3.333-.875 6.751-.875 10.242 0 33.694 27.454 61.157 61.157 61.157 33.694 0 61.157-27.454 61.157-61.157 0-3.491-.31-6.909-.875-10.242h21.447c9.995 0 18.127-8.131 18.127-18.126v-36.354c.002-7.933-5.078-14.874-12.634-17.274zm-105.78-21.777v-15.075c0-6.908 5.62-12.528 12.528-12.528h55.495v40.132h-55.495c-6.908 0-12.528-5.621-12.528-12.529zm-90.502 8.161c0-.177.144-.32.319-.32h16.351v42.936h-16.67zm-80.177 42.616h-76.036c-1.522-.879-3.083-1.696-4.684-2.443v-9.718h80.72zm-61.634 60.496h.673c-1.173 7.143-3.991 13.734-8.051 19.38l-.459-.459c-2.93-2.928-7.678-2.928-10.607 0-2.929 2.93-2.929 7.678 0 10.607l.459.459c-5.646 4.06-12.237 6.879-19.38 8.051v-.673c0-4.143-3.357-7.5-7.5-7.5s-7.5 3.357-7.5 7.5v.673c-7.143-1.172-13.734-3.991-19.38-8.051l.459-.459c2.929-2.93 2.929-7.678 0-10.607-2.93-2.928-7.678-2.928-10.607 0l-.459.459c-4.06-5.646-6.879-12.238-8.052-19.38h.674c4.143 0 7.5-3.357 7.5-7.5s-3.357-7.5-7.5-7.5h-.674c1.173-7.143 3.991-13.734 8.052-19.38l.459.46c2.931 2.929 7.678 2.928 10.607 0 2.929-2.93 2.929-7.678 0-10.607l-.459-.459c5.646-4.06 12.237-6.878 19.38-8.051v.673c0 4.143 3.357 7.5 7.5 7.5s7.5-3.357 7.5-7.5v-.673c7.143 1.172 13.734 3.991 19.38 8.051l-.459.459c-2.929 2.93-2.929 7.678 0 10.607 1.465 1.464 3.385 2.196 5.304 2.196s3.839-.732 5.304-2.196l.459-.459c4.06 5.646 6.879 12.237 8.051 19.38h-.673c-4.143 0-7.5 3.357-7.5 7.5s3.356 7.499 7.499 7.499zm16.826-197.717-61.827 102.146c-9.321-11.32-18.694-22.702-28.184-34.227l40.771-67.918h49.24zm66.98 0-66.068 110.059c-9.397 0-39.561 0-49.995 0l66.618-110.059zm-131.62 122.327c1.425 1.73 3.549 2.732 5.79 2.732h7.938v4.971c-3.502-.626-7.1-.971-10.779-.971-8.752 0-17.073 1.861-24.608 5.187v-38.223zm132.397-12.267c-10.39 0-38.965 0-49.349 0l66.067-110.059h56.595zm-172.398-110.06h37.906l-33.394 55.629c-9.721-11.806-17.363-21.085-26.089-31.684zm-7.208 64.996 10.55 12.812v59.413h-10.55zm-42.061 99.979c4.945-7.916 13.592-12.754 23.029-12.754h21.32c-3.098 3.895-5.729 8.173-7.814 12.754zm147.901 0c-2.085-4.581-4.715-8.859-7.813-12.754h155.477v12.754c-17.946 0-132.228 0-147.664 0zm284.92 32.742h.673c-1.173 7.143-3.991 13.734-8.051 19.38l-.459-.459c-2.93-2.928-7.678-2.928-10.607 0-2.929 2.93-2.929 7.678 0 10.607l.459.459c-5.646 4.06-12.237 6.879-19.38 8.051v-.673c0-4.143-3.357-7.5-7.5-7.5s-7.5 3.357-7.5 7.5v.673c-7.143-1.173-13.734-3.991-19.38-8.051l.459-.459c2.929-2.93 2.929-7.678 0-10.607-2.93-2.928-7.678-2.928-10.607 0l-.459.459c-4.06-5.646-6.878-12.237-8.051-19.38h.673c4.143 0 7.5-3.357 7.5-7.5s-3.357-7.5-7.5-7.5h-.673c1.172-7.143 3.991-13.734 8.051-19.38l.459.459c1.465 1.464 3.385 2.196 5.304 2.196s3.839-.732 5.304-2.196c2.929-2.93 2.929-7.678 0-10.607l-.459-.459c5.646-4.06 12.237-6.879 19.38-8.051v.673c0 4.143 3.357 7.5 7.5 7.5s7.5-3.357 7.5-7.5v-.673c7.143 1.172 13.734 3.991 19.38 8.051l-.459.459c-2.929 2.93-2.929 7.678 0 10.607 1.465 1.464 3.385 2.196 5.304 2.196s3.839-.732 5.304-2.196l.459-.459c4.06 5.646 6.879 12.237 8.051 19.38h-.673c-4.143 0-7.5 3.357-7.5 7.5s3.356 7.5 7.498 7.5z"/><path d="m412.133 332.757c-13.584 0-24.635 11.051-24.635 24.635s11.051 24.635 24.635 24.635 24.635-11.051 24.635-24.635-11.051-24.635-24.635-24.635zm0 34.27c-5.312 0-9.635-4.322-9.635-9.635s4.322-9.635 9.635-9.635 9.635 4.322 9.635 9.635-4.322 9.635-9.635 9.635z"/><path d="m116.396 332.757c-13.584 0-24.636 11.051-24.636 24.635s11.052 24.635 24.636 24.635 24.635-11.051 24.635-24.635-11.051-24.635-24.635-24.635zm0 34.27c-5.313 0-9.636-4.322-9.636-9.635s4.322-9.635 9.636-9.635c5.312 0 9.635 4.322 9.635 9.635s-4.323 9.635-9.635 9.635z"/></g></svg>