<?xml version="1.0" encoding="utf-8"?><svg viewBox="0 0 512.01 512.01" xmlns="http://www.w3.org/2000/svg" xmlns:xlink="http://www.w3.org/1999/xlink"><style>:root>svg{display:none}:root>svg:target{display:block}</style><svg viewBox="0 0 512 512" id="arrow-up" xmlns="http://www.w3.org/2000/svg"><path d="M396.6 352l19.4-20.7L256 160 96 331.3l19.3 20.7L256 201.5z"/></svg><svg viewBox="0 0 482.9 482.9" id="avatar" xmlns="http://www.w3.org/2000/svg"><path d="M239.7 260.2h3.2c29.3-.5 53-10.8 70.5-30.5 38.5-43.4 32.1-117.8 31.4-124.9-2.5-53.3-27.7-78.8-48.5-90.7C280.8 5.2 262.7.4 242.5 0H240.8c-11.1 0-32.9 1.8-53.8 13.7-21 11.9-46.6 37.4-49.1 91.1-.7 7.1-7.1 81.5 31.4 124.9 17.4 19.7 41.1 30 70.4 30.5zm-75.1-152.9c0-.3.1-.6.1-.8 3.3-71.7 54.2-79.4 76-79.4H241.9c27 .6 72.9 11.6 76 79.4 0 .3 0 .6.1.8.1.7 7.1 68.7-24.7 104.5-12.6 14.2-29.4 21.2-51.5 21.4h-1c-22-.2-38.9-7.2-51.4-21.4-31.7-35.6-24.9-103.9-24.8-104.5z"/><path d="M446.8 383.6v-.3c0-.8-.1-1.6-.1-2.5-.6-19.8-1.9-66.1-45.3-80.9-.3-.1-.7-.2-1-.3-45.1-11.5-82.6-37.5-83-37.8-6.1-4.3-14.5-2.8-18.8 3.3-4.3 6.1-2.8 14.5 3.3 18.8 1.7 1.2 41.5 28.9 91.3 41.7 23.3 8.3 25.9 33.2 26.6 56 0 .9 0 1.7.1 2.5.1 9-.5 22.9-2.1 30.9-16.2 9.2-79.7 41-176.3 41-96.2 0-160.1-31.9-176.4-41.1-1.6-8-2.3-21.9-2.1-30.9 0-.8.1-1.6.1-2.5.7-22.8 3.3-47.7 26.6-56 49.8-12.8 89.6-40.6 91.3-41.7 6.1-4.3 7.6-12.7 3.3-18.8-4.3-6.1-12.7-7.6-18.8-3.3-.4.3-37.7 26.3-83 37.8-.4.1-.7.2-1 .3-43.4 14.9-44.7 61.2-45.3 80.9 0 .9 0 1.7-.1 2.5v.3c-.1 5.2-.2 31.9 5.1 45.3 1 2.6 2.8 4.8 5.2 6.3 3 2 74.9 47.8 195.2 47.8s192.2-45.9 195.2-47.8c2.3-1.5 4.2-3.7 5.2-6.3 5-13.3 4.9-40 4.8-45.2z"/></svg><svg viewBox="0 0 24 24" id="bar" xmlns="http://www.w3.org/2000/svg"><path d="M22.308 24H1.692c-.444 0-.863-.195-1.149-.536a1.496 1.496 0 01-.328-1.225l2.647-15A1.497 1.497 0 014.339 6h15.322c.729 0 1.351.521 1.477 1.239l2.647 15c.077.438-.042.885-.328 1.225a1.496 1.496 0 01-1.149.536zM4.339 7a.5.5 0 00-.493.413l-2.647 15a.494.494 0 00.11.408c.056.067.18.179.383.179h20.616a.492.492 0 00.383-.179.494.494 0 00.11-.408l-2.647-15A.5.5 0 0019.661 7z"/><path d="M12 7c-1.93 0-3.5-1.57-3.5-3.5S10.07 0 12 0s3.5 1.57 3.5 3.5S13.93 7 12 7zm0-6c-1.378 0-2.5 1.122-2.5 2.5S10.622 6 12 6s2.5-1.122 2.5-2.5S13.378 1 12 1zM6.5 19a.5.5 0 01-.5-.5v-7a.5.5 0 011 0v7a.5.5 0 01-.5.5zM15.5 19a2.503 2.503 0 01-2.5-2.5v-3c0-1.378 1.122-2.5 2.5-2.5s2.5 1.122 2.5 2.5a.5.5 0 01-1 0c0-.827-.673-1.5-1.5-1.5s-1.5.673-1.5 1.5v3c0 .827.673 1.5 1.5 1.5s1.5-.673 1.5-1.5V16h-1.5a.5.5 0 010-1h2a.5.5 0 01.5.5v1c0 1.379-1.122 2.5-2.5 2.5z"/><path d="M10.5 19.062a.5.5 0 01-.333-.127l-4-3.562a.503.503 0 01.004-.749l4-3.5a.5.5 0 11.659.753l-3.574 3.126 3.577 3.187a.5.5 0 01-.333.872z"/></svg><svg viewBox="0 0 21000 29700" shape-rendering="geometricPrecision" text-rendering="geometricPrecision" image-rendering="optimizeQuality" fill-rule="evenodd" clip-rule="evenodd" id="boat" xmlns="http://www.w3.org/2000/svg"><path d="M14638.98 3189.76c-206.24 1423.65-596.21 3011.07-779.8 4432.41-936.48 2177.17-2000.08 4037.78-3137.8 5714.43l-253.47 83.37 2504.75-5309.78 407.95-1096.72 487.21-1245.92 771.16-2577.79zM7909.04 16605.01c1188.96-541.62 1618.56-1111.07 2008.39-2553.83 1652.86-3173.24 3274.59-6319.68 4344.04-9732.05 231.52-739.21 423.6-1548.83 617.72-2321.68l-2891.61 18300.47-9406.3 279.47c2409.21-552.47 4451.57-1551 5327.76-3972.38z"/><path d="M12277.05 20598.43L14850.73 2537.5l-2238.92 18258.49-10030.53-218.55z"/><path d="M14879.23 1997.45l-477.35 6871.72-1040.66 12242.14-231.72 20.81 1162.82-12272.57 258-4214.53zM2821.2 21580.36l12464.7-390.96c-3136.58 1477.91-9133.34 1033.82-12464.7 390.96z"/><path d="M1818.47 22007.88c3829.51 597.39 7808.36 674.95 11925.54 271.16-797.3 347.69-937.48 1257.38-1831.12 1053.46-3523.44-803.29-3920.62-161.28-5243.87 43.78-1968.99-209.4-3456.72-602.9-4850.55-1368.4z"/><path d="M8126.27 23415.59c2373.25-357.23 3430.57 1552.46 6071.45-859.58 678.82-447.77 1665.04 158.48 1630.27 950.26-1215.44-840.56-2130.27 741.2-3247.79 823.3-1001.56 240.68-2475.51-707.61-4453.93-913.98zm6682.42-20535.73l70.59-882.37L15436.89 7378l933.14 12010.8-8.5 23.97z"/><path d="M14833.09 7909.85c2222.6 583.23 4159.93 1954.79 5577.4 4762.84 844.58 2444.31 536.14 4833.09-919.26 7166.19-1212.13 1290.17-2605.16 2172.02-4334.75 2294.23 2855.14-5746.56 3823.9-10110.42-323.39-14223.26z"/><path d="M14808.69 2879.86l70.59-882.37 785.5 5234.53 1168.49 10891.38-14.82 36.81z"/></svg><svg viewBox="0 0 342.357 342.357" id="check" xmlns="http://www.w3.org/2000/svg"><path d="M290.04 33.286L118.861 204.427l-66.541-66.52L0 190.226l118.862 118.845L342.357 85.606z"/></svg><svg viewBox="0 0 97.16 97.16" id="clock" xmlns="http://www.w3.org/2000/svg"><g><path d="M48.58 0C21.793 0 0 21.793 0 48.58s21.793 48.58 48.58 48.58 48.58-21.793 48.58-48.58S75.367 0 48.58 0zm0 86.823c-21.087 0-38.244-17.155-38.244-38.243S27.493 10.337 48.58 10.337 86.824 27.492 86.824 48.58 69.667 86.823 48.58 86.823z"/><path d="M73.898 47.08H52.066V20.83a4 4 0 00-8 0v30.25a4 4 0 004 4h25.832a4 4 0 000-8z"/></g></svg><svg viewBox="0 0 28 29" id="close" xmlns="http://www.w3.org/2000/svg"><path fill-rule="evenodd" d="M16.121 14.499l11.314 11.314a1.5 1.5 0 11-2.121 2.121L14 16.62 2.686 27.934a1.5 1.5 0 11-2.121-2.121l11.314-11.314L.565 3.185a1.5 1.5 0 112.121-2.121L14 12.378 25.314 1.064a1.5 1.5 0 112.121 2.121L16.121 14.499z"/></svg><svg viewBox="0 0 479.058 479.058" id="envelope" xmlns="http://www.w3.org/2000/svg"><path d="M434.146 59.882H44.912C20.146 59.882 0 80.028 0 104.794v269.47c0 24.766 20.146 44.912 44.912 44.912h389.234c24.766 0 44.912-20.146 44.912-44.912v-269.47c0-24.766-20.146-44.912-44.912-44.912zm0 29.941c2.034 0 3.969.422 5.738 1.159L239.529 264.631 39.173 90.982a14.902 14.902 0 015.738-1.159zm0 299.411H44.912c-8.26 0-14.971-6.71-14.971-14.971V122.615l199.778 173.141c2.822 2.441 6.316 3.655 9.81 3.655s6.988-1.213 9.81-3.655l199.778-173.141v251.649c-.001 8.26-6.711 14.97-14.971 14.97z"/></svg><svg viewBox="-36 0 478 478.684" id="free-icon-gear-1272126" xmlns="http://www.w3.org/2000/svg"><path d="M240.344 310.684h-96c-4.422 0-8 3.582-8 8v32c0 4.418 3.578 8 8 8h96a8 8 0 008-8v-32a8 8 0 00-8-8zm-8 32h-80v-16h80zm0 0M5.14 60.883a8.002 8.002 0 00-4.796 7.32v20.961a7.998 7.998 0 004.797 7.32l18.082 8 4.152 7.2-2.145 19.695a7.997 7.997 0 003.954 7.793l18.14 10.48a8.004 8.004 0 008.723-.472l16-11.711h8.297l16 11.703a7.997 7.997 0 008.719.473l18.152-10.48a8.01 8.01 0 003.953-7.794l-2.145-19.695 4.153-7.2 18.078-8a8.001 8.001 0 004.8-7.32V68.203a8.005 8.005 0 00-4.8-7.32l-18.078-8-4.153-7.2 2.145-19.695a8.01 8.01 0 00-3.953-7.793L105.07 7.715a8.005 8.005 0 00-8.726.512l-16 11.714H72.03l-16-11.707a8.003 8.003 0 00-8.722-.468L29.14 18.234a8.004 8.004 0 00-3.95 7.793l2.145 19.696-4.152 7.203zm26.93 5.601a8 8 0 003.703-3.32l6.747-11.68a8.013 8.013 0 001.023-4.863L41.68 29.484l9.11-5.265 13.905 10.168a7.984 7.984 0 004.711 1.547h13.535a7.999 7.999 0 004.72-1.547l13.905-10.176 9.114 5.266-1.86 17.12a7.988 7.988 0 001.028 4.864l6.757 11.719a8.08 8.08 0 003.704 3.32l15.707 6.922v10.527l-15.672 6.918a8.012 8.012 0 00-3.707 3.32l-6.797 11.696a7.994 7.994 0 00-1.028 4.867l1.868 17.11-9.114 5.265-13.906-10.168a8.011 8.011 0 00-4.71-1.547H69.413a7.999 7.999 0 00-4.719 1.547L50.79 133.133l-9.11-5.266 1.856-17.11a8.02 8.02 0 00-1.023-4.866L35.75 94.17a7.963 7.963 0 00-3.703-3.32L16.344 83.95V73.422zm0 0"/><path d="M76.176 106.852c15.554.003 28.172-12.606 28.176-28.165 0-15.554-12.61-28.171-28.168-28.171S48.016 63.125 48.016 78.684c.015 15.546 12.613 28.144 28.16 28.168zm0-40.336c6.719-.004 12.172 5.441 12.176 12.164 0 6.718-5.446 12.172-12.168 12.172-6.72.003-12.168-5.446-12.168-12.168.007-6.715 5.445-12.153 12.16-12.168zm0 0M387.414 54.516l-8.976-11.582a7.996 7.996 0 00-8.27-2.86l-30.54 7.664-3.933-2.718-3.847-33.657a8.005 8.005 0 00-5.602-6.734L312.207.348a8.006 8.006 0 00-8.418 2.465l-21.598 25.375h-4.8L255.789 2.813a7.998 7.998 0 00-8.422-2.465l-14.031 4.28a8 8 0 00-5.602 6.735l-3.84 33.657-3.937 2.718-30.574-7.664a8 8 0 00-8.274 2.86l-8.976 11.574a8.004 8.004 0 00-.703 8.719l15.488 28.488-1.535 4.496-28.242 12.496a8.004 8.004 0 00-4.797 7.313v14.664a7.998 7.998 0 004.797 7.32l28.273 12.488 1.535 4.496-10.75 19.696H48.344c-4.422 0-8 3.582-8 8v288c0 4.418 3.578 8 8 8h288a8 8 0 008-8V200.125l25.812 6.488a8.25 8.25 0 001.953.239 7.997 7.997 0 006.32-3.094l8.977-11.578a8.002 8.002 0 00.703-8.727l-15.488-28.48 1.535-4.504 28.274-12.489a8.001 8.001 0 004.8-7.32v-14.64a8 8 0 00-4.8-7.313l-28.274-12.496-1.535-4.496 15.496-28.48a7.996 7.996 0 00-.703-8.72zm-192 160.8a7.998 7.998 0 00-8.719 1.735l-34.351 34.32v-60.687h80v72h-32v-40a8.002 8.002 0 00-4.938-7.391zm132.93 247.368h-272v-272h80v80A8 8 0 00150 276.34l34.344-34.344v28.688c0 4.418 3.578 8 8 8h48a8 8 0 008-8v-80h80zm62.855-341.45v4.22l-26.715 11.8a7.995 7.995 0 00-4.343 4.734l-3.797 11.145a7.992 7.992 0 00.55 6.398l14.649 26.977-2.57 3.312-24.63-6.183v-.953a8 8 0 00-8-8H302.07c24.344-10.567 37.926-36.774 32.532-62.754-5.399-25.985-28.293-44.614-54.832-44.614-26.54 0-49.434 18.63-54.829 44.614-5.398 25.98 8.184 52.187 32.528 62.754h-63.063l8.246-15.16a7.994 7.994 0 00.547-6.399l-3.8-11.137a7.984 7.984 0 00-4.344-4.734l-26.711-11.8v-4.22l26.71-11.797a8.001 8.001 0 004.344-4.738l3.801-11.144a7.994 7.994 0 00-.547-6.399L187.98 60.18l2.579-3.32 28.984 7.28a8.016 8.016 0 006.504-1.175l9.894-6.856a8.006 8.006 0 003.403-5.664L243 18.395l4-1.215 20.59 24.191a8 8 0 006.09 2.816h12.183a7.996 7.996 0 006.094-2.816l20.594-24.191 4 1.215 3.656 32.05a7.996 7.996 0 003.398 5.672l9.907 6.848a7.996 7.996 0 006.496 1.176l28.98-7.282 2.578 3.328-14.671 26.977a7.993 7.993 0 00-.543 6.398l3.789 11.13a8.015 8.015 0 004.343 4.745zm-111.426 42.114c-22.09 0-40-17.907-40-40 0-22.09 17.91-40 40-40 22.094 0 40 17.91 40 40-.027 22.082-17.918 39.972-40 40zm0 0"/></svg><svg viewBox="-66 0 511 511.999" id="free-icon-medal-1851036" xmlns="http://www.w3.org/2000/svg"><path d="M40.5 190c0 82.71 67.29 150 150 150s150-67.29 150-150-67.29-150-150-150-150 67.29-150 150zm150-130c71.684 0 130 58.316 130 130s-58.316 130-130 130-130-58.316-130-130 58.316-130 130-130zm0 0"/><path d="M97.89 172.172l38.762 38.191-8.918 53.676a9.997 9.997 0 003.989 9.73 10.004 10.004 0 0010.484.786l48.293-25.078 48.29 25.078a9.996 9.996 0 0010.483-.785 9.997 9.997 0 003.989-9.73l-8.918-53.677 38.761-38.191a9.993 9.993 0 002.493-10.215 10.007 10.007 0 00-8.024-6.797l-53.793-8.097-24.34-48.676a9.997 9.997 0 00-17.886 0l-24.34 48.676-53.793 8.097a10.001 10.001 0 00-5.531 17.012zm67.438-6.106c3.219-.484 6-2.504 7.457-5.414L190.5 125.22l17.715 35.433a10.004 10.004 0 007.457 5.414l39.152 5.895-28.215 27.793a10.018 10.018 0 00-2.847 8.766l6.492 39.066-35.149-18.25a10.003 10.003 0 00-9.215 0l-35.148 18.25 6.492-39.066a9.996 9.996 0 00-2.847-8.766l-28.211-27.793zm0 0M200.5 10c0 5.523-4.477 10-10 10s-10-4.477-10-10 4.477-10 10-10 10 4.477 10 10zm0 0"/><path d="M143.371 5.895C59.25 27.367.5 103.075.5 190c0 53.988 22.7 104.86 62.547 140.887L2.8 437.062a10.002 10.002 0 0010.73 14.727l68.418-14.207 24.047 67.762a9.997 9.997 0 0018.113 1.597L190.5 390.223l66.387 116.718a9.996 9.996 0 008.687 5.055c.293 0 .59-.012.883-.035a10.014 10.014 0 008.547-6.617l24.043-67.762 68.418 14.207c3.844.797 7.8-.73 10.113-3.902a9.994 9.994 0 00.617-10.825L317.95 330.887c39.848-36.028 62.547-86.899 62.547-140.887 0-86.926-58.75-162.633-142.867-184.105a9.998 9.998 0 00-12.164 7.214c-1.367 5.352 1.863 10.797 7.215 12.164C307.937 44.484 360.5 112.223 360.5 190c0 94.66-76.879 170-170 170-93.188 0-170-75.402-170-170 0-77.777 52.559-145.516 127.816-164.727 5.352-1.367 8.582-6.812 7.22-12.164a9.998 9.998 0 00-12.165-7.214zm-25.836 472.16l-19.652-55.38a10 10 0 00-11.457-6.448l-55.324 11.488 47.68-84.031c27.8 20.21 60.718 32.523 94.948 35.57zm177.035-61.828a10.003 10.003 0 00-11.457 6.449l-19.648 55.379-56.2-98.801c34.235-3.047 67.15-15.36 94.954-35.57l47.68 84.03zm0 0"/></svg><svg viewBox="0 0 421.6 421.6" id="free-icon-weight-686512" xmlns="http://www.w3.org/2000/svg"><path d="M210.663 90.4c-39.2 0-71.2 32-71.2 71.2s32 71.2 71.2 71.2 71.2-32 71.2-71.2-32-71.2-71.2-71.2zm0 126.4c-30.4 0-55.2-24.8-55.2-55.2 0-30.4 24.8-55.2 55.2-55.2 30.4 0 55.2 24.8 55.2 55.2 0 30.4-24.8 55.2-55.2 55.2z"/><path d="M210.663 120c-4.8 0-8 3.2-8 8v33.6c0 4.8 3.2 8 8 8s8-3.2 8-8V128c0-4.8-4-8-8-8z"/><path d="M311.463 50.4c0-3.2 0-6.4-1.6-8.8-20-41.6-95.2-41.6-99.2-41.6-4.8 0-79.2 0-100 42.4-.8 2.4-.8 5.6.8 8l27.2 44c-16.8 17.6-27.2 41.6-27.2 68 0 30.4 13.6 57.6 36 76v47.2c0 7.2 6.4 13.6 15.2 13.6h40.8v23.2c0 4.8 3.2 8 8 8 20.8 0 37.6 16.8 37.6 37.6s-16.8 37.6-37.6 37.6-37.6-16.8-37.6-37.6c0-4.8-3.2-8-8-8s-8 3.2-8 8c0 29.6 24 53.6 53.6 53.6s53.6-24 53.6-53.6c0-27.2-20-48.8-45.6-52.8v-16h40.8c8 0 15.2-6.4 15.2-13.6v-47.2c21.6-18.4 36-45.6 36-76 0-26.4-10.4-50.4-27.2-68l27.2-44zm-184-4.8c18.4-30.4 82.4-29.6 82.4-29.6 18.4 0 67.2 4.8 83.2 29.6l-22.4 37.6c-16.8-12.8-37.6-20.8-60-20.8s-43.2 8-60 20.8l-23.2-37.6zm35.2 236.8v-33.6c14.4 8 30.4 12 47.2 12s33.6-4.8 47.2-12v33.6h-94.4zm131.2-120.8c0 45.6-37.6 83.2-83.2 83.2s-83.2-37.6-83.2-83.2 36.8-83.2 83.2-83.2c46.4 0 83.2 37.6 83.2 83.2z"/></svg><svg viewBox="0 -36 512 511" id="image" xmlns="http://www.w3.org/2000/svg"><path d="M231.898 198.617c28.204 0 51.153-22.945 51.153-51.148 0-28.207-22.95-51.153-51.153-51.153s-51.148 22.946-51.148 51.153c0 28.203 22.945 51.148 51.148 51.148zm0-72.3c11.665 0 21.153 9.488 21.153 21.152 0 11.66-9.488 21.148-21.153 21.148-11.66 0-21.148-9.488-21.148-21.148 0-11.664 9.488-21.153 21.148-21.153zm0 0"/><path d="M493.305.5H18.695C8.387.5 0 8.887 0 19.195v401.727c0 10.308 8.387 18.695 18.695 18.695h474.61c10.308 0 18.695-8.387 18.695-18.695V19.195C512 8.887 503.613.5 493.305.5zM482 30.5v237.406l-94.352-94.355c-6.152-6.14-16.156-6.137-22.304.012l-133.442 133.44-85.238-85.233a15.674 15.674 0 00-11.164-4.63c-4.215 0-8.176 1.641-11.156 4.622L30 316.105V30.5zM30 409.617v-51.086l105.5-105.5 85.234 85.235a15.694 15.694 0 0011.168 4.632c4.211 0 8.176-1.644 11.153-4.625L376.5 204.828l105.504 105.504v99.285zm0 0"/></svg><svg viewBox="0 0 512 512" id="instagram" xmlns="http://www.w3.org/2000/svg"><g><path d="M437 0H75C33.65 0 0 33.65 0 75v362c0 41.36 33.65 75 75 75h362c41.36 0 75-33.64 75-75V75c0-41.35-33.64-75-75-75zm45 437c0 24.81-20.19 45-45 45H75c-24.81 0-45-20.19-45-45V75c0-24.81 20.19-45 45-45h362c24.81 0 45 20.19 45 45v362z"/><path d="M421 61c-16.54 0-30 13.46-30 30s13.46 30 30 30 30-13.46 30-30-13.46-30-30-30zM256 121c-74.44 0-135 60.56-135 135s60.56 135 135 135 135-60.56 135-135-60.56-135-135-135zm0 240c-57.9 0-105-47.1-105-105s47.1-105 105-105 105 47.1 105 105-47.1 105-105 105z"/></g></svg><svg viewBox="0 0 512 512" id="jackhammer" xmlns="http://www.w3.org/2000/svg"><path d="M304.996 84.66h-98.021c-5.522 0-10 4.477-10 10s4.478 10 10 10h98.021c5.522 0 10-4.477 10-10s-4.477-10-10-10zM172.42 395.783l-26.985-35.184c-3.361-4.383-9.641-5.208-14.021-1.849-4.382 3.361-5.21 9.639-1.849 14.021l22.317 29.098-22.317 29.098a10 10 0 00.002 12.175l26.985 35.155a9.986 9.986 0 007.939 3.912 9.953 9.953 0 006.082-2.068c4.381-3.363 5.206-9.641 1.844-14.021l-22.313-29.069 22.315-29.096a9.998 9.998 0 00.001-12.172zM360.094 401.869l22.338-29.094c3.363-4.38 2.539-10.658-1.842-14.021s-10.658-2.54-14.021 1.842l-27.014 35.184a10 10 0 000 12.18l22.336 29.092-22.334 29.064c-3.365 4.379-2.543 10.658 1.837 14.022a9.953 9.953 0 006.086 2.071c3 0 5.967-1.345 7.937-3.908l27.014-35.155a10 10 0 00.002-12.183zM304.429 125.105h-97.991c-5.522 0-10 4.477-10 10s4.478 10 10 10h97.991c5.522 0 10-4.477 10-10s-4.478-10-10-10z"/><path d="M479.748 66.927h-65.196c-3.059-8.147-10.913-13.972-20.125-13.972H370.91C369.479 23.815 345.295.547 315.767.547H196.232c-29.542 0-53.74 23.268-55.171 52.408h-23.518c-9.211 0-17.066 5.825-20.124 13.972H32.224C14.455 66.927 0 81.373 0 99.129c0 17.741 14.455 32.174 32.224 32.174h65.189c3.054 8.146 10.913 13.972 20.131 13.972h23.448v7.281c0 23.601 7.596 46.508 21.969 66.479v28.749c0 14.718 11.685 26.757 26.276 27.365v15.456c0 15.308 12.472 27.762 27.801 27.762h3.097v114.448l-10.968 24.375a10.002 10.002 0 00.49 9.158l23.526 40.162a10.002 10.002 0 008.629 4.945h28.375a9.998 9.998 0 008.631-4.95l23.498-40.162a10 10 0 00.492-9.145l-10.943-24.378v-10.189c0-5.523-4.478-10-10-10s-10 4.477-10 10v12.331c0 1.412.299 2.808.877 4.095l9.711 21.632-18.001 30.766h-16.908l-18.021-30.764 9.731-21.626a9.994 9.994 0 00.881-4.104V318.366h31.73V333c0 5.523 4.478 10 10 10s10-4.477 10-10v-14.634h3.097c15.329 0 27.801-12.454 27.801-27.762v-15.456c14.576-.608 26.248-12.647 26.248-27.365V219.04c14.373-19.937 21.969-42.845 21.969-66.485v-7.281h23.448c9.218 0 17.077-5.826 20.131-13.972h65.189c17.784 0 32.252-14.433 32.252-32.174 0-17.755-14.468-32.201-32.252-32.201zm-261.724-46.38h75.923v11.834c0 6.525-5.331 11.834-11.883 11.834h-52.157c-6.552 0-11.883-5.309-11.883-11.834zM20 99.129c0-6.729 5.483-12.202 12.224-12.202h63.813v24.376H32.224c-6.741 0-12.224-5.461-12.224-12.174zm97.544 26.145c-.804 0-1.508-.68-1.508-1.455V74.438c0-.79.704-1.483 1.508-1.483h23.448v52.319zm65.417 122.51v-22.016h37.74v29.41h-30.308c-4.029 0-7.432-3.386-7.432-7.394zm88.338 7.394h-30.598v-54.372c0-8.413 6.856-15.257 15.284-15.257 8.444 0 15.313 6.844 15.313 15.257v54.372zm23.663 43.188h-77.924c-4.302 0-7.801-3.482-7.801-7.762v-15.426h93.525v15.426c.001 4.208-3.572 7.762-7.8 7.762zm34.049-50.582c0 4.077-3.321 7.394-7.404 7.394h-30.308v-29.41h37.712zm21.968-95.229c0 18.784-5.894 37.08-17.071 53.212h-42.609v-4.961c0-19.441-15.842-35.257-35.313-35.257-19.456 0-35.284 15.816-35.284 35.257v4.961H178.07c-11.181-16.165-17.077-34.462-17.077-53.212V55.687c0-19.376 15.809-35.14 35.24-35.14h1.792v11.834c0 17.554 14.303 31.834 31.883 31.834h52.157c17.58 0 31.883-14.281 31.883-31.834V20.547h1.82c19.416 0 35.212 15.764 35.212 35.14v96.868zm44.957-28.735c0 .789-.69 1.455-1.508 1.455H370.98v-52.32h23.448c.817 0 1.508.679 1.508 1.483zm83.812-12.517h-63.813V86.927h63.813c6.756 0 12.252 5.474 12.252 12.202 0 6.713-5.496 12.174-12.252 12.174z"/><path d="M281.865 367.786c-5.522 0-10 4.491-10 10.014s4.478 10 10 10 10-4.477 10-10v-.028c0-5.523-4.477-9.986-10-9.986z"/></svg><svg viewBox="0 0 17.5 17.5" id="minus" xmlns="http://www.w3.org/2000/svg"><path fill-rule="evenodd" stroke="#4CB3EC" fill="#4CB3EC" d="M8.375.812a7.5 7.5 0 110 15 7.5 7.5 0 010-15z"/><path fill-rule="evenodd" fill="#F4F4F4" d="M5.5 7.5h5v2h-5v-2z"/></svg><svg viewBox="0 0 512.002 512.002" id="next" xmlns="http://www.w3.org/2000/svg"><path d="M388.425 241.951L151.609 5.79c-7.759-7.733-20.321-7.72-28.067.04-7.74 7.759-7.72 20.328.04 28.067l222.72 222.105-222.728 222.104c-7.759 7.74-7.779 20.301-.04 28.061a19.8 19.8 0 0014.057 5.835 19.79 19.79 0 0014.017-5.795l236.817-236.155c3.737-3.718 5.834-8.778 5.834-14.05s-2.103-10.326-5.834-14.051z"/></svg><svg viewBox="0 0 51.512 51.512" id="phone" xmlns="http://www.w3.org/2000/svg"><path d="M49.202 5.582a7.832 7.832 0 00-.561-.443C45.412 2.704 40.448-.206 35.657.012c-8.022.37-18.684 11.196-21.761 14.506C10.82 17.829.801 29.253 1.019 37.273c.033 1.337.314 2.754.836 4.21 1.205 3.361 3.497 6.395 5.184 8.322 0 0 .353.415.523.575.435.403 1.07.722 1.941.975.445.129.914.157 1.228.157.35 0 1.028-.035 1.645-.265.844-.315 1.448-.676 1.854-1.108.297-.32 5.962-7.551 5.994-7.597l.036-.055a5.01 5.01 0 00.699-1.217 4.848 4.848 0 00.05-3.4 4.604 4.604 0 00-1.192-1.819l-2.66-2.485c-.25-.233-.509-.666-.546-.819a2.203 2.203 0 01-.04-.345L32.07 15.724a.297.297 0 01.101-.071l.061.023c.124.061.518.349.908.709l2.662 2.459c1.399 1.301 3.575 1.624 5.272.796.605-.295 1.057-.699 1.27-.886l.12-.097c.055-.048 6.736-6.136 6.987-6.409.629-.677.969-1.743 1.041-3.258.04-.842-.208-1.898-.589-2.511-.247-.394-.477-.689-.701-.897zm-1.923 4.593c-.346.341-6.415 5.882-6.733 6.172l-.247.204a2.625 2.625 0 01-.544.392c-.608.296-1.4.18-1.917-.3l-2.665-2.462c-.311-.288-1.107-.988-1.77-1.266a3.175 3.175 0 00-1.274-.272c-.854.03-1.65.392-2.251 1.03L14.223 30.519c-.595.641-.785 1.573-.564 2.771.171.926.871 1.929 1.449 2.469l2.665 2.489c.179.166.321.386.411.634a1.87 1.87 0 01-.019 1.294 2.065 2.065 0 01-.299.501 1.874 1.874 0 00-.111.157c-.537.693-5.424 6.911-5.708 7.248-.002.001-.167.148-.72.355a2.053 2.053 0 01-.595.075c-.207 0-.342-.023-.391-.038-.536-.156-.724-.285-.728-.285-.097-.097-.264-.299-.293-.333-1.539-1.759-3.594-4.467-4.64-7.386-.414-1.154-.636-2.254-.661-3.274-.149-5.479 6.413-14.541 12.076-20.635 5.662-6.095 14.221-13.3 19.7-13.552 3.95-.184 8.201 2.385 11.007 4.5l.108.081c.064.047.184.132.236.176.071.075.14.187.196.276.068.133.164.546.151.804-.043.886-.202 1.296-.214 1.329z"/></svg><svg viewBox="0 0 682 682.667" id="placeholder" xmlns="http://www.w3.org/2000/svg"><path d="M216.21 0C93.548 0-6.25 99.797-6.25 222.46-6.25 376.638 216.43 640 216.43 640s222.242-270.945 222.242-417.54C438.672 99.798 338.879 0 216.21 0zm67.122 287.598c-18.508 18.504-42.812 27.757-67.121 27.757-24.305 0-48.617-9.253-67.117-27.757-37.012-37.008-37.012-97.227 0-134.239 17.922-17.93 41.761-27.804 67.117-27.804 25.355 0 49.191 9.879 67.121 27.804 37.012 37.012 37.012 97.23 0 134.239zm0 0"/></svg><svg viewBox="0 0 17.5 17.5" id="plus" xmlns="http://www.w3.org/2000/svg"><path fill-rule="evenodd" stroke="#4CB3EC" fill="#4CB3EC" d="M8.375.812a7.5 7.5 0 110 15 7.5 7.5 0 010-15z"/><path fill-rule="evenodd" fill="#FFF" d="M7.5 5.469h2v6h-2v-6z"/><path fill-rule="evenodd" fill="#FFF" d="M5.5 7.5h6v2h-6v-2z"/></svg><svg fill="none" viewBox="0 0 48 48" id="return" xmlns="http://www.w3.org/2000/svg"><path fill="#fff" fill-opacity=".01" d="M0 0h48v48H0z"/><path d="M12.364 8L6 14.364l6.364 6.364" stroke="#4cb3ec" stroke-width="4" stroke-linecap="round" stroke-linejoin="round"/><path d="M6 14.364h22.672c6.885 0 12.54 5.439 12.808 12.318v0C41.764 33.952 35.947 40 28.672 40H12" stroke="#4cb3ec" stroke-width="4" stroke-linecap="round" stroke-linejoin="round"/></svg><svg viewBox="0 0 476.213 476.213" id="right-arrow" xmlns="http://www.w3.org/2000/svg"><path d="M345.606 107.5l-21.212 21.213 94.393 94.394H0v30h418.787L324.394 347.5l21.212 21.213 130.607-130.607z"/></svg><svg viewBox="0 0 32 32" id="rub" xmlns="http://www.w3.org/2000/svg"><path d="M11 6v10H9v2h2v2H9v2h2v4h2v-4h5v-2h-5v-2h6c3.3 0 6-2.7 6-6s-2.7-6-6-6zm2 2h6c2.219 0 4 1.781 4 4 0 2.219-1.781 4-4 4h-6z"/></svg><svg viewBox="0 0 261.21 476.21" id="scroller" xmlns="http://www.w3.org/2000/svg"><path d="M0 130.61l21.21 21.21 94.4-94.39v418.78h30V57.43L240 151.82l21.21-21.21L130.61 0 0 130.61z"/></svg><svg viewBox="0 0 482.6 482.6" id="telephone" xmlns="http://www.w3.org/2000/svg"><path d="M98.339 320.8c47.6 56.9 104.9 101.7 170.3 133.4 24.9 11.8 58.2 25.8 95.3 28.2 2.3.1 4.5.2 6.8.2 24.9 0 44.9-8.6 61.2-26.3.1-.1.3-.3.4-.5 5.8-7 12.4-13.3 19.3-20 4.7-4.5 9.5-9.2 14.1-14 21.3-22.2 21.3-50.4-.2-71.9l-60.1-60.1c-10.2-10.6-22.4-16.2-35.2-16.2-12.8 0-25.1 5.6-35.6 16.1l-35.8 35.8c-3.3-1.9-6.7-3.6-9.9-5.2-4-2-7.7-3.9-11-6-32.6-20.7-62.2-47.7-90.5-82.4-14.3-18.1-23.9-33.3-30.6-48.8 9.4-8.5 18.2-17.4 26.7-26.1 3-3.1 6.1-6.2 9.2-9.3 10.8-10.8 16.6-23.3 16.6-36s-5.7-25.2-16.6-36l-29.8-29.8c-3.5-3.5-6.8-6.9-10.2-10.4-6.6-6.8-13.5-13.8-20.3-20.1-10.3-10.1-22.4-15.4-35.2-15.4-12.7 0-24.9 5.3-35.6 15.5l-37.4 37.4c-13.6 13.6-21.3 30.1-22.9 49.2-1.9 23.9 2.5 49.3 13.9 80 17.5 47.5 43.9 91.6 83.1 138.7zm-72.6-216.6c1.2-13.3 6.3-24.4 15.9-34l37.2-37.2c5.8-5.6 12.2-8.5 18.4-8.5 6.1 0 12.3 2.9 18 8.7 6.7 6.2 13 12.7 19.8 19.6 3.4 3.5 6.9 7 10.4 10.6l29.8 29.8c6.2 6.2 9.4 12.5 9.4 18.7s-3.2 12.5-9.4 18.7c-3.1 3.1-6.2 6.3-9.3 9.4-9.3 9.4-18 18.3-27.6 26.8l-.5.5c-8.3 8.3-7 16.2-5 22.2.1.3.2.5.3.8 7.7 18.5 18.4 36.1 35.1 57.1 30 37 61.6 65.7 96.4 87.8 4.3 2.8 8.9 5 13.2 7.2 4 2 7.7 3.9 11 6 .4.2.7.4 1.1.6 3.3 1.7 6.5 2.5 9.7 2.5 8 0 13.2-5.1 14.9-6.8l37.4-37.4c5.8-5.8 12.1-8.9 18.3-8.9 7.6 0 13.8 4.7 17.7 8.9l60.3 60.2c12 12 11.9 25-.3 37.7-4.2 4.5-8.6 8.8-13.3 13.3-7 6.8-14.3 13.8-20.9 21.7-11.5 12.4-25.2 18.2-42.9 18.2-1.7 0-3.5-.1-5.2-.2-32.8-2.1-63.3-14.9-86.2-25.8-62.2-30.1-116.8-72.8-162.1-127-37.3-44.9-62.4-86.7-79-131.5-10.3-27.5-14.2-49.6-12.6-69.7z"/></svg><svg viewBox="0 0 377.2 377.2" id="time" xmlns="http://www.w3.org/2000/svg"><path d="M322 55.8C287.6 21.4 240.4.2 188.4.2S89.2 21.4 55.2 55.4 0 136.6 0 188.6c0 50.8 20 96.8 52.8 130.8 32.8 34 78 55.6 128.8 57.6 4 0 7.6-3.2 7.6-7.2s-3.2-7.6-7.2-7.6c-46.4-1.6-88.4-21.6-118.4-52.8-30-31.6-48.4-74-48.4-120.8 0-48 19.6-91.2 50.8-122.8 31.2-31.2 74.4-50.4 122.4-50.4S279.6 35 310.8 66.2C342 97.4 361.6 141 361.6 189c0 15.2-2 30-5.6 44.4-3.6 14-9.2 28-16.8 40.8-2 3.6-.8 8 2.8 10.4 3.6 2 8 .8 10.4-2.8 8-14 14-29.2 18.4-44.8 4-15.6 6.4-32 6.4-48 0-52-21.2-99.2-55.2-133.2z"/><path d="M188 41.4c-40.4 0-77.2 16.4-104 43.2-26.4 26.4-43.2 63.2-43.2 104 0 32.8 10.8 63.6 29.6 88.8 18.8 24.8 45.6 44 77.2 52.8 4 1.2 8-1.2 9.2-5.2 1.2-4-1.2-8-5.2-9.2-28.4-8-52.4-25.2-69.2-47.2-15.6-20.4-24.8-45.2-26.4-72h18.8c4 0 7.6-3.2 7.6-7.6 0-4-3.2-7.6-7.6-7.6H56c2-33.6 16-63.6 38.4-85.6 22.4-22.4 52.4-36.4 85.6-38.4v18.8c0 4 3.2 7.6 7.6 7.6 4 0 7.6-3.2 7.6-7.6V57.4c33.6 2 63.6 16 85.6 38.4 22.4 22.4 36.4 52.4 38.4 85.6h-18.8c-4 0-7.6 3.2-7.6 7.6 0 4 3.2 7.6 7.6 7.6h18.8c-.4 4-.4 8-1.2 12-.8 6.4-2.4 12.8-4.4 19.2-1.2 4 1.2 8 4.8 9.2 5.2 1.2 9.2-1.2 10.4-5.2 2-7.2 4-14.4 4.8-21.2 1.2-7.2 1.6-14.4 1.6-22 0-40.4-16.4-77.2-43.2-104-26.4-26.4-63.2-43.2-104-43.2z"/><path d="M188.4 97.4c-4 0-7.6 3.2-7.6 7.6v61.2c-3.2 1.2-6.4 2.8-8.8 5.2l-.4.4c-2.4 2.4-4.4 5.6-5.6 9.2h-46c-4 0-7.6 3.2-7.6 7.6 0 4 3.2 7.6 7.6 7.6h45.6c1.2 3.6 3.2 6.8 5.6 9.2 4.4 4.4 10.4 6.8 16.8 6.8s12.4-2.8 16.8-6.8c4.4-4.4 6.8-10.4 6.8-16.8s-2.8-12.4-6.8-16.8c-2.4-2.4-5.6-4.4-9.2-5.6V105c.4-4-3.2-7.6-7.2-7.6zm8.8 91.2c0 2.4-1.2 4.8-2.8 6.4-1.6 1.6-3.6 2.4-6 2.4s-4.8-.8-6-2.4c-1.6-1.6-2.4-3.6-2.4-6s.8-4.4 2.4-6l.4-.4c1.6-1.6 3.6-2.4 6-2.4s4.8.8 6 2.4c1.6 1.6 2.4 3.6 2.4 6zM268.8 297.4c-3.6-2.8-8.4-5.2-14.8-6.4-3.6-.8-6-1.6-7.6-2.4-1.6-.8-2.4-2-2.4-3.6s.8-2.8 2.4-4c1.6-1.2 3.2-1.6 5.2-1.6 2.4 0 4.8.4 7.6 1.6 2.8 1.2 5.2 1.6 6.4 1.6 2 0 3.2-.8 4.8-2.4 1.2-1.6 2-3.2 2-4.8 0-3.2-1.2-5.6-4-6.8-3.2-1.6-6.8-2.8-11.2-3.2v-4.8c0-2-.4-3.2-1.6-4s-2.8-1.2-4.4-1.2c-1.6 0-3.2.4-4.4 1.6-1.2 1.2-1.6 2.4-1.6 4.4v4.8c-5.2 1.2-9.2 3.6-12.4 7.6-3.2 3.6-4.8 8-4.8 12.8 0 5.2 2 9.2 5.6 12 3.6 2.8 8.8 5.2 15.6 6.4 6 1.2 9.2 3.2 9.2 6.4-.4 2-1.2 3.6-2.8 4.8s-3.6 1.6-5.6 1.6h-2.8c-.8 0-1.6-.4-2.4-.4-.8-.4-1.6-.4-2-.8-.4 0-1.2-.4-2-.8s-1.2-.4-1.6-.8c-2.4-.8-4.4-1.6-6-1.6-2 0-3.2.8-4.8 2.4-1.2 1.6-2 3.6-2 5.6 0 3.2 1.6 5.6 4.8 7.2 3.2 2 7.6 3.2 13.2 3.6v5.6c0 1.6.4 2.8 2 3.6 1.2.8 2.8 1.2 4.4 1.2 2 0 3.2-.4 4.4-1.2 1.2-.8 1.6-2.4 1.6-4.4v-5.6c5.2-1.2 9.2-3.6 12.4-7.2 3.2-3.6 4.8-8 4.8-13.6 0-6-1.6-10.4-5.2-13.2z"/><path d="M250.4 223.4c-21.2 0-40.4 8.4-54 22.4-14 14-22.4 33.2-22.4 54 0 21.2 8.4 40.4 22.4 54 13.6 13.6 32.8 22.4 54 22.4s40.4-8.4 54-22.4c14-14 22.4-33.2 22.4-54 0-21.2-8.4-40.4-22.4-54-14-14-33.2-22.4-54-22.4zM294 343c-11.2 11.2-26.4 18-43.6 18s-32.4-6.8-43.6-18-18-26.4-18-43.6c0-16.8 6.8-32.4 18-43.6 11.2-11.2 26.4-18 43.6-18s32.4 6.8 43.6 18 18 26.4 18 43.6-6.8 32.4-18 43.6z"/></svg><svg viewBox="0 0 511.99 511.99" id="truck" xmlns="http://www.w3.org/2000/svg"><path d="M499.354 275.396l-22.757-7.233v-67.734c0-10.764-8.757-19.521-19.521-19.521h-49.95c-4.143 0-7.5 3.358-7.5 7.5s3.357 7.5 7.5 7.5h49.95a4.527 4.527 0 014.521 4.521v10.588h-55.495c-15.179 0-27.528 12.349-27.528 27.528v15.075c0 15.179 12.35 27.528 27.528 27.528h61.832l26.877 8.544a3.111 3.111 0 012.179 2.978v11.727h-7.192c-4.143 0-7.5 3.357-7.5 7.5s3.357 7.5 7.5 7.5h7.192v9.628a3.13 3.13 0 01-3.127 3.126h-26.047c-9.831-21.6-31.425-35.915-55.683-35.915-24.219 0-45.836 14.28-55.683 35.915h-21.709v-98.73c0-20.684 16.828-37.512 37.512-37.512h4.887c4.143 0 7.5-3.358 7.5-7.5s-3.357-7.5-7.5-7.5h-4.887c-28.955 0-52.512 23.557-52.512 52.512v13.042H303.39c-8.447 0-15.319 6.873-15.319 15.32v42.615h-50.177v-12.161h11.965a7.498 7.498 0 006.242-3.342l81.079-121.717h8.37a23.393 23.393 0 0016.125-6.413l22.436-21.197 33.933-10.302a7.5 7.5 0 005.321-7.177v-21.146a7.5 7.5 0 00-7.5-7.5h-41.979a23.39 23.39 0 00-16.126 6.413l-21.548 20.361H235.487c-4.143 0-7.5 3.358-7.5 7.5s3.357 7.5 7.5 7.5h103.709a7.501 7.501 0 005.151-2.048l23.717-22.41a8.445 8.445 0 015.823-2.315h34.479v8.085l-30.301 9.199a7.507 7.507 0 00-2.972 1.725l-23.719 22.409a8.442 8.442 0 01-5.823 2.316H70.108a7.498 7.498 0 00-5.571 2.479l-34.767 38.58c-3.232 3.586-8.601 3.666-11.977.624-3.475-3.131-3.754-8.504-.625-11.978l39.528-43.865a8.496 8.496 0 016.301-2.803h142.502c4.143 0 7.5-3.358 7.5-7.5s-3.357-7.5-7.5-7.5H62.997a23.512 23.512 0 00-17.443 7.762L6.025 171.842c-8.665 9.618-7.891 24.494 1.726 33.161 9.665 8.709 24.517 7.869 33.162-1.725l.802-.889 9.524 11.566v90.441h-4.031c-15.715 0-30.018 8.643-37.328 22.555l-4.839 9.211a7.501 7.501 0 006.64 10.988h44.433a61.316 61.316 0 00-.875 10.242c0 33.693 27.454 61.157 61.158 61.157 33.694 0 61.157-27.454 61.157-61.157 0-3.491-.31-6.909-.875-10.242h22.852v11.145c0 9.011 7.33 16.341 16.34 16.341h14.524c4.143 0 7.5-3.357 7.5-7.5s-3.357-7.5-7.5-7.5H215.87c-.739 0-1.34-.602-1.34-1.341V347.15h85.211v11.145c0 .739-.601 1.341-1.34 1.341H260.38c-4.143 0-7.5 3.357-7.5 7.5s3.357 7.5 7.5 7.5h38.021c9.01 0 16.34-7.33 16.34-16.341V347.15h37.109a61.21 61.21 0 00-.875 10.242c0 33.694 27.454 61.157 61.157 61.157 33.694 0 61.157-27.454 61.157-61.157 0-3.491-.31-6.909-.875-10.242h21.447c9.995 0 18.127-8.131 18.127-18.126V292.67a18.055 18.055 0 00-12.634-17.274zm-105.78-21.777v-15.075c0-6.908 5.62-12.528 12.528-12.528h55.495v40.132h-55.495c-6.908 0-12.528-5.621-12.528-12.529zm-90.502 8.161a.32.32 0 01.319-.32h16.351v42.936h-16.67zm-80.177 42.616h-76.036a60.605 60.605 0 00-4.684-2.443v-9.718h80.72zm-61.634 60.496h.673a45.907 45.907 0 01-8.051 19.38l-.459-.459a7.5 7.5 0 00-10.607 10.607l.459.459a45.894 45.894 0 01-19.38 8.051v-.673c0-4.143-3.357-7.5-7.5-7.5s-7.5 3.357-7.5 7.5v.673a45.894 45.894 0 01-19.38-8.051l.459-.459a7.5 7.5 0 00-10.607-10.607l-.459.459a45.913 45.913 0 01-8.052-19.38h.674c4.143 0 7.5-3.357 7.5-7.5s-3.357-7.5-7.5-7.5h-.674a45.895 45.895 0 018.052-19.38l.459.46a7.501 7.501 0 0010.607-10.607l-.459-.459a45.907 45.907 0 0119.38-8.051v.673c0 4.143 3.357 7.5 7.5 7.5s7.5-3.357 7.5-7.5v-.673a45.894 45.894 0 0119.38 8.051l-.459.459a7.5 7.5 0 1010.608 10.607l.459-.459a45.894 45.894 0 018.051 19.38h-.673c-4.143 0-7.5 3.357-7.5 7.5s3.356 7.499 7.499 7.499zm16.826-197.717L116.26 269.321l-28.184-34.227 40.771-67.918h49.24zm66.98 0l-66.068 110.059h-49.995l66.618-110.059zm-131.62 122.327a7.501 7.501 0 005.79 2.732h7.938v4.971a61.182 61.182 0 00-10.779-.971 60.784 60.784 0 00-24.608 5.187v-38.223zm132.397-12.267h-49.349l66.067-110.059h56.595zM73.446 167.175h37.906l-33.394 55.629c-9.721-11.806-17.363-21.085-26.089-31.684zm-7.208 64.996l10.55 12.812v59.413h-10.55zM24.177 332.15a27.088 27.088 0 0123.029-12.754h21.32a61.248 61.248 0 00-7.814 12.754zm147.901 0a61.243 61.243 0 00-7.813-12.754h155.477v12.754H172.078zm284.92 32.742h.673a45.907 45.907 0 01-8.051 19.38l-.459-.459a7.5 7.5 0 00-10.607 10.607l.459.459a45.894 45.894 0 01-19.38 8.051v-.673c0-4.143-3.357-7.5-7.5-7.5s-7.5 3.357-7.5 7.5v.673a45.907 45.907 0 01-19.38-8.051l.459-.459a7.5 7.5 0 00-10.607-10.607l-.459.459a45.907 45.907 0 01-8.051-19.38h.673c4.143 0 7.5-3.357 7.5-7.5s-3.357-7.5-7.5-7.5h-.673a45.894 45.894 0 018.051-19.38l.459.459c1.465 1.464 3.385 2.196 5.304 2.196s3.839-.732 5.304-2.196a7.5 7.5 0 000-10.607l-.459-.459a45.894 45.894 0 0119.38-8.051v.673c0 4.143 3.357 7.5 7.5 7.5s7.5-3.357 7.5-7.5v-.673a45.894 45.894 0 0119.38 8.051l-.459.459a7.5 7.5 0 1010.608 10.607l.459-.459a45.894 45.894 0 018.051 19.38H457c-4.143 0-7.5 3.357-7.5 7.5s3.356 7.5 7.498 7.5z"/><path d="M412.133 332.757c-13.584 0-24.635 11.051-24.635 24.635s11.051 24.635 24.635 24.635 24.635-11.051 24.635-24.635-11.051-24.635-24.635-24.635zm0 34.27c-5.312 0-9.635-4.322-9.635-9.635s4.322-9.635 9.635-9.635 9.635 4.322 9.635 9.635-4.322 9.635-9.635 9.635zM116.396 332.757c-13.584 0-24.636 11.051-24.636 24.635s11.052 24.635 24.636 24.635 24.635-11.051 24.635-24.635-11.051-24.635-24.635-24.635zm0 34.27c-5.313 0-9.636-4.322-9.636-9.635s4.322-9.635 9.636-9.635c5.312 0 9.635 4.322 9.635 9.635s-4.323 9.635-9.635 9.635z"/></svg><svg viewBox="0 0 512.005 512.005" id="zoom" xmlns="http://www.w3.org/2000/svg"><path d="M505.749 475.587l-145.6-145.6c28.203-34.837 45.184-79.104 45.184-127.317C405.333 90.926 314.41.003 202.666.003S0 90.925 0 202.669s90.923 202.667 202.667 202.667c48.213 0 92.48-16.981 127.317-45.184l145.6 145.6c4.16 4.16 9.621 6.251 15.083 6.251s10.923-2.091 15.083-6.251c8.341-8.341 8.341-21.824-.001-30.165zM202.667 362.669c-88.235 0-160-71.765-160-160s71.765-160 160-160 160 71.765 160 160-71.766 160-160 160z"/></svg></svg>