<?xml version="1.0" encoding="utf-8"?><svg viewBox="0 0 512 512" xmlns="http://www.w3.org/2000/svg" xmlns:xlink="http://www.w3.org/1999/xlink"><style>:root>svg{display:none}:root>svg:target{display:block}</style><svg viewBox="0 0 21000 29700" shape-rendering="geometricPrecision" text-rendering="geometricPrecision" image-rendering="optimizeQuality" fill-rule="evenodd" clip-rule="evenodd" id="boat" xmlns="http://www.w3.org/2000/svg"><path d="M14638.98 3189.76c-206.24 1423.65-596.21 3011.07-779.8 4432.41-936.48 2177.17-2000.08 4037.78-3137.8 5714.43l-253.47 83.37 2504.75-5309.78 407.95-1096.72 487.21-1245.92 771.16-2577.79zM7909.04 16605.01c1188.96-541.62 1618.56-1111.07 2008.39-2553.83 1652.86-3173.24 3274.59-6319.68 4344.04-9732.05 231.52-739.21 423.6-1548.83 617.72-2321.68l-2891.61 18300.47-9406.3 279.47c2409.21-552.47 4451.57-1551 5327.76-3972.38z"/><path d="M12277.05 20598.43L14850.73 2537.5l-2238.92 18258.49-10030.53-218.55z"/><path d="M14879.23 1997.45l-477.35 6871.72-1040.66 12242.14-231.72 20.81 1162.82-12272.57 258-4214.53zM2821.2 21580.36l12464.7-390.96c-3136.58 1477.91-9133.34 1033.82-12464.7 390.96z"/><path d="M1818.47 22007.88c3829.51 597.39 7808.36 674.95 11925.54 271.16-797.3 347.69-937.48 1257.38-1831.12 1053.46-3523.44-803.29-3920.62-161.28-5243.87 43.78-1968.99-209.4-3456.72-602.9-4850.55-1368.4z"/><path d="M8126.27 23415.59c2373.25-357.23 3430.57 1552.46 6071.45-859.58 678.82-447.77 1665.04 158.48 1630.27 950.26-1215.44-840.56-2130.27 741.2-3247.79 823.3-1001.56 240.68-2475.51-707.61-4453.93-913.98zm6682.42-20535.73l70.59-882.37L15436.89 7378l933.14 12010.8-8.5 23.97z"/><path d="M14833.09 7909.85c2222.6 583.23 4159.93 1954.79 5577.4 4762.84 844.58 2444.31 536.14 4833.09-919.26 7166.19-1212.13 1290.17-2605.16 2172.02-4334.75 2294.23 2855.14-5746.56 3823.9-10110.42-323.39-14223.26z"/><path d="M14808.69 2879.86l70.59-882.37 785.5 5234.53 1168.49 10891.38-14.82 36.81z"/></svg><svg viewBox="0 0 97.16 97.16" id="clock" xmlns="http://www.w3.org/2000/svg"><g><path d="M48.58 0C21.793 0 0 21.793 0 48.58s21.793 48.58 48.58 48.58 48.58-21.793 48.58-48.58S75.367 0 48.58 0zm0 86.823c-21.087 0-38.244-17.155-38.244-38.243S27.493 10.337 48.58 10.337 86.824 27.492 86.824 48.58 69.667 86.823 48.58 86.823z"/><path d="M73.898 47.08H52.066V20.83a4 4 0 00-8 0v30.25a4 4 0 004 4h25.832a4 4 0 000-8z"/></g></svg><svg viewBox="0 0 479.058 479.058" id="envelope" xmlns="http://www.w3.org/2000/svg"><path d="M434.146 59.882H44.912C20.146 59.882 0 80.028 0 104.794v269.47c0 24.766 20.146 44.912 44.912 44.912h389.234c24.766 0 44.912-20.146 44.912-44.912v-269.47c0-24.766-20.146-44.912-44.912-44.912zm0 29.941c2.034 0 3.969.422 5.738 1.159L239.529 264.631 39.173 90.982a14.902 14.902 0 015.738-1.159zm0 299.411H44.912c-8.26 0-14.971-6.71-14.971-14.971V122.615l199.778 173.141c2.822 2.441 6.316 3.655 9.81 3.655s6.988-1.213 9.81-3.655l199.778-173.141v251.649c-.001 8.26-6.711 14.97-14.971 14.97z"/></svg><svg viewBox="0 0 512 512" id="instagram" xmlns="http://www.w3.org/2000/svg"><g><path d="M437 0H75C33.65 0 0 33.65 0 75v362c0 41.36 33.65 75 75 75h362c41.36 0 75-33.64 75-75V75c0-41.35-33.64-75-75-75zm45 437c0 24.81-20.19 45-45 45H75c-24.81 0-45-20.19-45-45V75c0-24.81 20.19-45 45-45h362c24.81 0 45 20.19 45 45v362z"/><path d="M421 61c-16.54 0-30 13.46-30 30s13.46 30 30 30 30-13.46 30-30-13.46-30-30-30zM256 121c-74.44 0-135 60.56-135 135s60.56 135 135 135 135-60.56 135-135-60.56-135-135-135zm0 240c-57.9 0-105-47.1-105-105s47.1-105 105-105 105 47.1 105 105-47.1 105-105 105z"/></g></svg><svg viewBox="0 0 51.512 51.512" id="phone" xmlns="http://www.w3.org/2000/svg"><path d="M49.202 5.582a7.832 7.832 0 00-.561-.443C45.412 2.704 40.448-.206 35.657.012c-8.022.37-18.684 11.196-21.761 14.506C10.82 17.829.801 29.253 1.019 37.273c.033 1.337.314 2.754.836 4.21 1.205 3.361 3.497 6.395 5.184 8.322 0 0 .353.415.523.575.435.403 1.07.722 1.941.975.445.129.914.157 1.228.157.35 0 1.028-.035 1.645-.265.844-.315 1.448-.676 1.854-1.108.297-.32 5.962-7.551 5.994-7.597l.036-.055a5.01 5.01 0 00.699-1.217 4.848 4.848 0 00.05-3.4 4.604 4.604 0 00-1.192-1.819l-2.66-2.485c-.25-.233-.509-.666-.546-.819a2.203 2.203 0 01-.04-.345L32.07 15.724a.297.297 0 01.101-.071l.061.023c.124.061.518.349.908.709l2.662 2.459c1.399 1.301 3.575 1.624 5.272.796.605-.295 1.057-.699 1.27-.886l.12-.097c.055-.048 6.736-6.136 6.987-6.409.629-.677.969-1.743 1.041-3.258.04-.842-.208-1.898-.589-2.511-.247-.394-.477-.689-.701-.897zm-1.923 4.593c-.346.341-6.415 5.882-6.733 6.172l-.247.204a2.625 2.625 0 01-.544.392c-.608.296-1.4.18-1.917-.3l-2.665-2.462c-.311-.288-1.107-.988-1.77-1.266a3.175 3.175 0 00-1.274-.272c-.854.03-1.65.392-2.251 1.03L14.223 30.519c-.595.641-.785 1.573-.564 2.771.171.926.871 1.929 1.449 2.469l2.665 2.489c.179.166.321.386.411.634a1.87 1.87 0 01-.019 1.294 2.065 2.065 0 01-.299.501 1.874 1.874 0 00-.111.157c-.537.693-5.424 6.911-5.708 7.248-.002.001-.167.148-.72.355a2.053 2.053 0 01-.595.075c-.207 0-.342-.023-.391-.038-.536-.156-.724-.285-.728-.285-.097-.097-.264-.299-.293-.333-1.539-1.759-3.594-4.467-4.64-7.386-.414-1.154-.636-2.254-.661-3.274-.149-5.479 6.413-14.541 12.076-20.635 5.662-6.095 14.221-13.3 19.7-13.552 3.95-.184 8.201 2.385 11.007 4.5l.108.081c.064.047.184.132.236.176.071.075.14.187.196.276.068.133.164.546.151.804-.043.886-.202 1.296-.214 1.329z"/></svg><svg viewBox="0 0 682 682.667" id="placeholder" xmlns="http://www.w3.org/2000/svg"><path d="M216.21 0C93.548 0-6.25 99.797-6.25 222.46-6.25 376.638 216.43 640 216.43 640s222.242-270.945 222.242-417.54C438.672 99.798 338.879 0 216.21 0zm67.122 287.598c-18.508 18.504-42.812 27.757-67.121 27.757-24.305 0-48.617-9.253-67.117-27.757-37.012-37.008-37.012-97.227 0-134.239 17.922-17.93 41.761-27.804 67.117-27.804 25.355 0 49.191 9.879 67.121 27.804 37.012 37.012 37.012 97.23 0 134.239zm0 0"/></svg><svg viewBox="0 0 261.21 476.21" id="scroller" xmlns="http://www.w3.org/2000/svg"><path d="M0 130.61l21.21 21.21 94.4-94.39v418.78h30V57.43L240 151.82l21.21-21.21L130.61 0 0 130.61z"/></svg></svg>